<?xml version="1.0" encoding="utf-8"?>
<!-- Generator: Adobe Illustrator 27.5.0, SVG Export Plug-In . SVG Version: 6.00 Build 0)  -->
<svg version="1.1" xmlns="http://www.w3.org/2000/svg" xmlns:xlink="http://www.w3.org/1999/xlink" x="0px" y="0px"
	 viewBox="0 0 500 500" style="enable-background:new 0 0 500 500;" xml:space="preserve">
<g id="BACKGROUND">
	<rect style="fill:#FDFFFE;" width="500" height="500"/>
</g>
<g id="OBJECTS">
	<g>
		<g>
			<g>
				<path style="fill:#9E8942;" d="M379.838,255.87c-8.531,1.692-19.561-1.64-27.011-5.573c-2.288-1.208-11.747-5.942-10.029-10.125
					C346.395,231.418,373.991,249.322,379.838,255.87z"/>
				<path style="fill:#9E8942;" d="M381.685,262.127c-1.105-8.627,2.974-19.404,7.407-26.566c1.362-2.2,6.731-11.314,10.787-9.313
					C408.368,230.434,388.619,256.741,381.685,262.127z"/>
				<path style="fill:#9E8942;" d="M383.137,279.645c-8.531,1.692-19.561-1.64-27.011-5.573
					c-2.288-1.208-11.747-5.942-10.029-10.125C349.694,255.193,377.289,273.097,383.137,279.645z"/>
				<path style="fill:#9E8942;" d="M384.984,285.902c-1.105-8.627,2.974-19.403,7.407-26.566c1.362-2.2,6.731-11.314,10.787-9.313
					C411.666,254.209,391.917,280.516,384.984,285.902z"/>
				<path style="fill:#9E8942;" d="M385.542,301.564c-8.695,0.195-18.985-4.989-25.645-10.148
					c-2.045-1.584-10.547-7.879-8.132-11.703C356.818,271.709,380.912,294.105,385.542,301.564z"/>
				<path style="fill:#9E8942;" d="M386.283,308.045c0.4-8.688,6.276-18.6,11.878-24.891c1.72-1.932,8.582-9.983,12.232-7.313
					C418.031,281.43,394.041,303.936,386.283,308.045z"/>
				<path style="fill:#9E8942;" d="M384.709,326.828c-8.691-0.34-18.643-6.147-24.973-11.705
					c-1.944-1.707-10.042-8.512-7.398-12.181C357.873,295.264,380.546,319.098,384.709,326.828z"/>
				<path style="fill:#9E8942;" d="M385.049,333.342c0.933-8.647,7.407-18.179,13.385-24.114c1.836-1.823,9.179-9.437,12.658-6.547
					C418.374,308.728,393.046,329.717,385.049,333.342z"/>
				<path style="fill:#9E8942;" d="M382.865,352.106c-8.621-1.148-17.989-7.858-23.773-13.982c-1.776-1.881-9.205-9.411-6.23-12.817
					C359.089,318.178,379.44,344.022,382.865,352.106z"/>
				<path style="fill:#9E8942;" d="M382.597,358.624c1.735-8.523,9.069-17.409,15.575-22.761c1.998-1.643,10.019-8.54,13.213-5.339
					C418.071,337.223,390.896,355.76,382.597,358.624z"/>
				<path style="fill:#9E8942;" d="M379.992,376.037c-8.6-1.296-17.851-8.165-23.529-14.388c-1.744-1.911-9.042-9.568-6.009-12.922
					C356.801,341.707,376.707,367.895,379.992,376.037z"/>
				<path style="fill:#9E8942;" d="M379.612,382.55c1.881-8.492,9.367-17.251,15.963-22.49c2.026-1.609,10.164-8.367,13.303-5.112
					C415.448,361.761,387.959,379.829,379.612,382.55z"/>
				<g>
					<g>
						<path style="fill:#3D3C41;" d="M373.89,234.61c1.383,4.138,2.398,8.376,3.351,12.629c1.004,4.481,1.977,8.976,2.819,13.491
							c1.783,9.569,3.026,19.223,3.773,28.928c0.781,10.157,1.041,20.354,0.849,30.538c-0.194,10.256-0.848,20.504-1.966,30.7
							c-1.082,9.866-2.607,19.687-4.643,29.402c-0.244,1.165-0.442,2.313-0.588,3.495c-0.123,0.991,1.391,1.094,1.673,0.226
							c0.757-2.33,1.171-4.759,1.638-7.161c0.469-2.408,0.906-4.823,1.315-7.242c0.834-4.942,1.547-9.905,2.15-14.881
							c1.238-10.206,2.004-20.469,2.312-30.745c0.308-10.294,0.157-20.605-0.515-30.882c-0.641-9.796-1.762-19.564-3.497-29.228
							c-0.824-4.59-1.746-9.221-3.042-13.704c-1.241-4.294-2.725-8.492-4.274-12.682c-0.365-0.986-0.753-1.964-1.127-2.946
							C374.063,234.41,373.841,234.465,373.89,234.61L373.89,234.61z"/>
					</g>
				</g>
				<path style="fill:#9E8942;" d="M377.469,242.904c-7.36-4.634-13.082-14.635-15.79-22.612c-0.832-2.45-4.45-12.39-0.326-14.247
					C369.982,202.157,377.722,234.128,377.469,242.904z"/>
			</g>
			<g>
				<path style="fill:#C6AB53;" d="M424.794,311.695c-6.497-2.702-12.412-9.907-15.649-15.904
					c-0.994-1.842-5.223-9.282-2.185-11.321C413.318,280.204,423.811,304.661,424.794,311.695z"/>
				<path style="fill:#C6AB53;" d="M423.22,316.733c3.14-6.297,10.732-11.705,16.937-14.525c1.905-0.866,9.617-4.576,11.443-1.405
					C455.422,307.437,430.305,316.233,423.22,316.733z"/>
				<path style="fill:#C6AB53;" d="M416.311,329.163c-6.497-2.703-12.412-9.907-15.649-15.904
					c-0.994-1.842-5.223-9.282-2.185-11.321C404.835,297.671,415.327,322.128,416.311,329.163z"/>
				<path style="fill:#C6AB53;" d="M414.736,334.2c3.14-6.297,10.732-11.706,16.937-14.525c1.905-0.866,9.617-4.576,11.444-1.405
					C446.938,324.904,421.821,333.7,414.736,334.2z"/>
				<path style="fill:#C6AB53;" d="M408.062,344.98c-5.933-3.783-10.517-11.899-12.672-18.365
					c-0.662-1.986-3.544-10.044-0.199-11.528C402.19,311.981,408.306,337.881,408.062,344.98z"/>
				<path style="fill:#C6AB53;" d="M405.642,349.67c4.179-5.661,12.591-9.679,19.188-11.386c2.026-0.524,10.262-2.849,11.514,0.589
					C438.965,346.068,412.707,350.4,405.642,349.67z"/>
				<path style="fill:#C6AB53;" d="M396.13,361.588c-5.69-4.14-9.766-12.523-11.519-19.109c-0.538-2.022-2.92-10.242,0.51-11.518
					C392.297,328.291,396.811,354.518,396.13,361.588z"/>
				<path style="fill:#C6AB53;" d="M393.427,366.121c4.519-5.393,13.162-8.887,19.852-10.186c2.055-0.399,10.418-2.212,11.456,1.296
					C426.908,364.574,400.434,367.283,393.427,366.121z"/>
				<path style="fill:#C6AB53;" d="M383.513,377.751c-5.279-4.652-8.556-13.379-9.688-20.1c-0.348-2.064-1.952-10.47,1.581-11.421
					C382.8,344.242,384.849,370.775,383.513,377.751z"/>
				<path style="fill:#C6AB53;" d="M380.399,382.012c5.002-4.948,13.933-7.621,20.715-8.29c2.083-0.206,10.579-1.232,11.286,2.358
					C413.878,383.593,387.267,383.823,380.399,382.012z"/>
				<path style="fill:#C6AB53;" d="M370.81,392.546c-5.198-4.742-8.325-13.524-9.341-20.263c-0.312-2.07-1.772-10.502,1.777-11.392
					C370.672,359.029,372.266,385.594,370.81,392.546z"/>
				<path style="fill:#C6AB53;" d="M367.623,396.753c5.087-4.862,14.061-7.381,20.854-7.934c2.086-0.17,10.598-1.05,11.243,2.552
					C401.071,398.908,374.459,398.681,367.623,396.753z"/>
				<g>
					<g>
						<path style="fill:#3D3C41;" d="M430.342,294.725c-0.954,3.416-2.217,6.738-3.551,10.02c-1.385,3.41-2.722,6.842-4.184,10.221
							c-3.123,7.216-6.623,14.257-10.481,21.109c-4.035,7.166-8.438,14.124-13.138,20.872c-4.726,6.785-9.757,13.356-15.079,19.684
							c-5.163,6.139-10.598,12.053-16.328,17.668c-0.698,0.684-1.356,1.36-1.978,2.115c-0.273,0.331-0.342,0.761-0.067,1.118
							c0.235,0.304,0.759,0.475,1.099,0.219c1.588-1.194,2.956-2.623,4.356-4.03c1.415-1.421,2.811-2.861,4.189-4.317
							c2.79-2.947,5.507-5.963,8.153-9.039c5.446-6.33,10.602-12.913,15.456-19.707c4.836-6.769,9.371-13.756,13.542-20.954
							c4.006-6.913,7.67-14.023,10.86-21.35c1.502-3.45,2.965-6.974,4.095-10.567c1.084-3.449,1.919-6.962,2.727-10.485
							c0.192-0.836,0.367-1.677,0.555-2.514C430.601,294.64,430.382,294.579,430.342,294.725L430.342,294.725z"/>
					</g>
				</g>
				<path style="fill:#C6AB53;" d="M429.038,301.912c-2.862-6.428-2.207-15.727-0.437-22.308c0.544-2.021,2.585-10.332,6.194-9.725
					C442.345,271.15,433.158,296.127,429.038,301.912z"/>
			</g>
			<g>
				<path style="fill:#E3CD6D;" d="M397.153,400.502c-4.582-5.34-6.617-14.437-6.805-21.249c-0.058-2.092-0.48-10.64,3.15-11.091
					C401.096,367.218,399.444,393.779,397.153,400.502z"/>
				<path style="fill:#E3CD6D;" d="M393.478,404.29c5.641-4.206,14.855-5.614,21.665-5.336c2.091,0.085,10.648,0.248,10.849,3.901
					C426.414,410.5,400.028,407.036,393.478,404.29z"/>
				<path style="fill:#E3CD6D;" d="M381.709,412.274c-4.582-5.34-6.617-14.437-6.805-21.249c-0.058-2.092-0.48-10.639,3.15-11.091
					C385.652,378.99,384,405.551,381.709,412.274z"/>
				<path style="fill:#E3CD6D;" d="M378.034,416.061c5.641-4.206,14.855-5.614,21.665-5.336c2.091,0.085,10.648,0.248,10.849,3.901
					C410.97,422.272,384.584,418.807,378.034,416.061z"/>
				<path style="fill:#E3CD6D;" d="M367.218,422.678c-3.593-6.05-4.028-15.362-3.038-22.105c0.304-2.071,1.362-10.563,5.016-10.381
					C376.844,390.573,370.635,416.451,367.218,422.678z"/>
				<path style="fill:#E3CD6D;" d="M362.945,425.775c6.282-3.17,15.601-2.968,22.261-1.519c2.045,0.445,10.445,2.081,10.014,5.714
					C394.316,437.573,368.923,429.61,362.945,425.775z"/>
				<path style="fill:#E3CD6D;" d="M349.083,432.129c-3.214-6.26-3.076-15.58-1.674-22.25c0.431-2.048,2.008-10.459,5.645-10.053
					C360.663,400.676,352.876,426.124,349.083,432.129z"/>
				<path style="fill:#E3CD6D;" d="M344.627,434.958c6.465-2.779,15.754-2.004,22.312-0.148c2.014,0.57,10.297,2.719,9.644,6.319
					C375.215,448.662,350.359,439.152,344.627,434.958z"/>
				<path style="fill:#E3CD6D;" d="M330.536,440.874c-2.616-6.532-1.61-15.799,0.408-22.309c0.62-1.999,2.975-10.227,6.557-9.483
					C344.999,410.637,334.873,435.248,330.536,440.874z"/>
				<path style="fill:#E3CD6D;" d="M325.837,443.275c6.696-2.164,15.872-0.526,22.229,1.932c1.952,0.755,9.999,3.667,9.013,7.19
					C355.013,459.77,331.152,447.985,325.837,443.275z"/>
				<path style="fill:#E3CD6D;" d="M312.53,448.358c-2.504-6.576-1.339-15.824,0.79-22.298c0.654-1.988,3.15-10.174,6.719-9.369
					C327.509,418.374,316.962,442.808,312.53,448.358z"/>
				<path style="fill:#E3CD6D;" d="M307.79,450.678c6.732-2.048,15.879-0.254,22.192,2.313c1.939,0.788,9.935,3.838,8.888,7.344
					C336.679,467.672,313.024,455.479,307.79,450.678z"/>
				<g>
					<g>
						<path style="fill:#3D3C41;" d="M409.755,387.847c-2.396,2.626-5.038,4.99-7.69,7.349c-2.77,2.463-5.558,4.915-8.404,7.291
							c-6.022,5.027-12.304,9.72-18.82,14.086c-6.857,4.594-13.95,8.835-21.215,12.751c-7.285,3.927-14.746,7.529-22.354,10.785
							c-7.383,3.159-14.914,5.983-22.57,8.409c-0.936,0.297-1.826,0.625-2.725,1.02c-0.943,0.413-0.223,1.714,0.656,1.556
							c1.932-0.346,3.788-1.027,5.648-1.646c1.894-0.63,3.78-1.284,5.658-1.961c3.832-1.382,7.63-2.858,11.392-4.42
							c7.71-3.202,15.275-6.747,22.665-10.63c7.327-3.85,14.485-8.026,21.417-12.55c6.698-4.373,13.178-9.079,19.339-14.183
							c2.894-2.397,5.798-4.881,8.406-7.591c2.502-2.601,4.838-5.333,7.141-8.111c0.546-0.659,1.08-1.328,1.624-1.988
							C410.015,387.898,409.858,387.734,409.755,387.847L409.755,387.847z"/>
					</g>
				</g>
				<path style="fill:#E3CD6D;" d="M405.349,393.68c0.341-7.028,5.116-15.034,9.661-20.112c1.396-1.559,6.963-8.059,9.911-5.891
					C431.089,372.213,411.634,390.372,405.349,393.68z"/>
			</g>
			<g>
				<path style="fill:#C6AB53;" d="M358.804,323.911c-9.056-1.372-18.793-8.614-24.768-15.172
					c-1.835-2.014-9.515-10.084-6.318-13.614C334.409,287.737,355.351,315.334,358.804,323.911z"/>
				<path style="fill:#C6AB53;" d="M358.399,330.769c1.988-8.941,9.879-18.16,16.83-23.672c2.135-1.693,10.711-8.803,14.014-5.372
					C396.156,308.905,367.192,327.911,358.399,330.769z"/>
				<path style="fill:#C6AB53;" d="M353.577,348.643c-9.056-1.372-18.793-8.614-24.768-15.172
					c-1.835-2.014-9.515-10.084-6.318-13.614C329.182,312.469,350.124,340.066,353.577,348.643z"/>
				<path style="fill:#C6AB53;" d="M353.172,355.501c1.988-8.941,9.879-18.16,16.83-23.672c2.135-1.693,10.711-8.803,14.014-5.372
					C390.929,333.637,361.965,352.643,353.172,355.501z"/>
				<path style="fill:#C6AB53;" d="M348.128,371.216c-8.684-2.913-17.026-11.726-21.78-19.217c-1.46-2.3-7.633-11.574-3.875-14.5
					C330.339,331.377,346.206,362.172,348.128,371.216z"/>
				<path style="fill:#C6AB53;" d="M346.546,377.902c3.5-8.465,12.863-16.184,20.661-20.415c2.395-1.299,12.069-6.824,14.731-2.874
					C387.509,362.878,355.7,376.603,346.546,377.902z"/>
				<path style="fill:#C6AB53;" d="M338.276,395.947c-8.489-3.442-16.273-12.75-20.557-20.519
					c-1.316-2.386-6.908-12.021-2.977-14.71C322.968,355.09,336.913,386.802,338.276,395.947z"/>
				<path style="fill:#C6AB53;" d="M336.286,402.523c4.014-8.233,13.833-15.363,21.876-19.106c2.47-1.15,12.465-6.069,14.879-1.964
					C378.094,390.045,345.503,401.789,336.286,402.523z"/>
				<path style="fill:#C6AB53;" d="M327.417,420.331c-8.131-4.218-15.013-14.212-18.555-22.346
					c-1.088-2.498-5.757-12.613-1.592-14.924C315.985,378.224,326.913,411.098,327.417,420.331z"/>
				<path style="fill:#C6AB53;" d="M324.823,426.692c4.764-7.823,15.205-14.007,23.562-16.984
					c2.567-0.914,12.977-4.881,14.998-0.568C367.613,418.166,334.068,426.82,324.823,426.692z"/>
				<path style="fill:#C6AB53;" d="M316.021,443.012c-8.057-4.357-14.768-14.467-18.169-22.661
					c-1.045-2.516-5.54-12.709-1.336-14.949C305.313,400.716,315.675,433.773,316.021,443.012z"/>
				<path style="fill:#C6AB53;" d="M313.318,449.328c4.897-7.74,15.443-13.744,23.85-16.577c2.582-0.87,13.059-4.658,15.005-0.311
					C356.247,441.537,322.559,449.615,313.318,449.328z"/>
				<g>
					<g>
						<path style="fill:#3D3C41;" d="M360.513,300.733c-0.104,4.63-0.608,9.226-1.173,13.818c-0.584,4.747-1.223,9.495-1.995,14.216
							c-1.656,10.129-3.878,20.153-6.606,30.047c-2.843,10.309-6.213,20.472-10.025,30.462
							c-3.853,10.098-8.165,20.021-12.921,29.727c-4.589,9.366-9.59,18.535-15.058,27.417c-0.66,1.072-1.288,2.134-1.862,3.254
							c-0.513,1.002,0.817,1.711,1.471,0.86c1.555-2.026,2.826-4.255,4.135-6.446c1.331-2.228,2.634-4.473,3.909-6.733
							c2.602-4.613,5.09-9.29,7.47-14.022c4.869-9.68,9.29-19.586,13.268-29.665c3.968-10.053,7.49-20.285,10.488-30.668
							c2.879-9.971,5.266-20.084,6.995-30.319c0.816-4.83,1.546-9.732,1.88-14.622c0.318-4.66,0.355-9.324,0.318-13.993
							c-0.009-1.11-0.04-2.221-0.058-3.332C360.745,300.582,360.516,300.582,360.513,300.733L360.513,300.733z"/>
					</g>
				</g>
				<path style="fill:#C6AB53;" d="M361.09,310.219c-5.636-7.221-7.731-19.173-7.564-28.043c0.051-2.724,0.019-13.864,4.767-14.231
					C368.231,267.177,364.476,301.615,361.09,310.219z"/>
			</g>
			<g>
				<path style="fill:#FF6B75;" d="M387.984,391.444c-2.861-3.305-4.482-8.51-3.586-13.841
					C387.046,361.854,393.13,383.355,387.984,391.444z"/>
				<path style="fill:#FF6B75;" d="M385.857,392.073c-4.316-0.692-8.904-3.638-11.644-8.297
					C366.118,370.009,384.6,382.569,385.857,392.073z"/>
				<path style="fill:#FF6B75;" d="M384.632,393.922c-3.751,2.244-9.159,2.936-14.253,1.128
					C355.328,389.708,377.56,387.45,384.632,393.922z"/>
				<path style="fill:#FF6B75;" d="M384.882,396.126c-1.431,4.13-5.129,8.137-10.193,10.026
					C359.725,411.734,375.304,395.714,384.882,396.126z"/>
				<path style="fill:#FF6B75;" d="M386.49,397.654c1.558,4.084,1.301,9.53-1.364,14.232
					C377.252,425.78,378.888,403.495,386.49,397.654z"/>
				<path style="fill:#FF6B75;" d="M388.704,397.79c3.819,2.127,7.122,6.464,8.103,11.78
					C399.706,425.275,386.635,407.151,388.704,397.79z"/>
				<path style="fill:#FF6B75;" d="M390.488,396.472c4.292-0.826,9.611,0.374,13.779,3.815
					C416.583,410.454,394.92,404.972,390.488,396.472z"/>
				<path style="fill:#FF6B75;" d="M391.007,394.315c2.758-3.392,7.603-5.892,13.008-5.935
					C419.984,388.253,399.866,397.978,391.007,394.315z"/>
				<path style="fill:#FF6B75;" d="M390.018,392.329c-0.068-4.371,2.037-9.4,6.15-12.908
					C408.319,369.059,399.159,389.441,390.018,392.329z"/>
				<path style="fill:#F3EEEC;" d="M383.499,394.065c1.24-5.919,9.79-4.648,8.951,1.167c-0.387,2.683-3.752,4.683-6.336,3.775
					C384.443,398.42,383.062,396.151,383.499,394.065z"/>
			</g>
			<g>
				<path style="fill:#F3EEEC;" d="M407.681,292.162c-5.182-0.634-10.79-3.945-14.268-9.384
					C383.136,266.707,405.757,280.874,407.681,292.162z"/>
				<path style="fill:#F3EEEC;" d="M406.301,294.424c-4.377,2.846-10.802,3.913-16.962,1.982
					C371.137,290.702,397.572,287.014,406.301,294.424z"/>
				<path style="fill:#F3EEEC;" d="M406.698,297.044c-1.524,4.994-5.759,9.941-11.72,12.422
					C377.368,316.796,395.248,296.979,406.698,297.044z"/>
				<path style="fill:#F3EEEC;" d="M408.686,298.796c2.043,4.805,1.978,11.317-0.993,17.049
					C398.914,332.779,399.873,306.106,408.686,298.796z"/>
				<path style="fill:#F3EEEC;" d="M411.335,298.86c4.653,2.368,8.79,7.398,10.198,13.699
					C425.694,331.174,409.283,310.125,411.335,298.86z"/>
				<path style="fill:#F3EEEC;" d="M413.406,297.206c5.087-1.177,11.488,0.017,16.617,3.939
					C445.176,312.731,419.075,307.155,413.406,297.206z"/>
				<path style="fill:#F3EEEC;" d="M413.929,294.608c3.14-4.171,8.812-7.371,15.261-7.664
					C448.246,286.079,424.666,298.586,413.929,294.608z"/>
				<path style="fill:#F3EEEC;" d="M412.66,292.282c-0.276-5.214,2.012-11.311,6.764-15.681
					C433.466,263.69,423.442,288.427,412.66,292.282z"/>
				<path style="fill:#F3EEEC;" d="M410.192,291.316c-3.563-3.817-5.729-9.958-4.898-16.36
					C407.752,256.04,415.974,281.432,410.192,291.316z"/>
				<path style="fill:#FC9B56;" d="M405.81,298.078c-3.645-6.237,4.946-11.963,8.863-6.139c1.807,2.687,0.429,7.154-2.586,8.421
					C410.136,301.178,407.095,300.276,405.81,298.078z"/>
			</g>
			<g>
				<path style="fill:#FF6B75;" d="M359.444,309.545c2.141-26.477,39.815-24.203,13.146-7.424
					C368.778,303.832,363.49,305.32,359.444,309.545z"/>
				<path style="fill:#FF6B75;" d="M359.458,310.135c-0.485-4.78,11.944-7.61,14.988-7.95c3.594-0.401,10.606,0.962,10.373,6.044
					c-0.194,4.249-7.44,3.952-10.672,3.863C368.842,311.945,363.879,310.619,359.458,310.135z"/>
				<path style="fill:#FF6B75;" d="M358.669,305.549c-1.536,4.406-0.041,9.366,2.844,12.976c2.004,2.508,7.45,6.206,10.603,3.336
					c3.254-2.962-1.144-7.424-3.199-9.673C366.34,309.367,362.82,308.67,358.669,305.549z"/>
				<path style="fill:#FF6B75;" d="M358.521,306.723c-2.416,3.782-5.928,6.434-7.232,11.04c-0.877,3.095-0.533,11.904,4.736,10.359
					C363.276,325.994,360.768,311.204,358.521,306.723z"/>
				<path style="fill:#FF6B75;" d="M360.374,309.322c-3.943-2.306-9.869-0.768-13.653,1.06c-2.925,1.413-9.714,6.096-8.593,10.318
					c1.478,5.566,8.998,1.288,11.422-0.783C352.591,317.318,355.42,313.165,360.374,309.322z"/>
				<path style="fill:#FF6B75;" d="M357.521,307.211c-1.735-0.694-4.272-0.334-6.254-0.917c-3.521-1.035-7.376-4.966-6.4-9.386
					c0.771-3.494,5.228-4.598,8.005-3.438c3.222,1.346,5.107,4.943,6.102,8.325l-0.949-0.716c-1.443-0.651-1.681-5.188-1.371-6.808
					c0.545-2.841,2.694-5.762,5.734-5.779c3.01-0.017,4.094,2.787,4.093,5.684c-0.002,4.769-4.081,6.325-6.037,9.806"/>
				<path style="fill:#FF6B75;" d="M354.397,306.401c-1.543-5.229-13.66-2.992-15.205,1.447
					C335.786,317.63,352.389,309,354.397,306.401z"/>
				<path style="fill:#F3EEEC;" d="M349.807,308.702c-2.095-9.25,13.752-15.351,16.471-6.611c1.255,4.032-3.182,9.86-8.347,10.985
					C354.59,313.805,350.546,311.962,349.807,308.702z"/>
			</g>
			<g>
				<path style="fill:#F3EEEC;" d="M343.553,420.168c3.641-18.837,30.504-14.211,10.027-4.285
					C350.707,416.808,346.794,417.456,343.553,420.168z"/>
				<path style="fill:#F3EEEC;" d="M343.516,420.593c0.031-3.47,9.179-4.514,11.391-4.516c2.612-0.002,7.537,1.533,6.966,5.163
					c-0.477,3.035-5.655,2.246-7.967,1.925C350.109,422.637,346.652,421.291,343.516,420.593z"/>
				<path style="fill:#F3EEEC;" d="M343.315,417.237c-1.453,3.041-0.774,6.72,1.011,9.541c1.24,1.959,4.855,5.047,7.346,3.237
					c2.572-1.867-0.231-5.42-1.528-7.198C348.518,420.588,346.046,419.808,343.315,417.237z"/>
				<path style="fill:#F3EEEC;" d="M343.115,418.068c-2.035,2.523-4.766,4.148-6.069,7.35c-0.876,2.152-1.328,8.503,2.576,7.813
					C344.997,432.28,344.372,421.464,343.115,418.068z"/>
				<path style="fill:#F3EEEC;" d="M344.239,420.082c-2.648-1.969-7.024-1.335-9.885-0.324c-2.212,0.782-7.458,3.604-6.989,6.724
					c0.618,4.113,6.357,1.64,8.262,0.345C338.017,425.203,340.378,422.447,344.239,420.082z"/>
				<path style="fill:#F3EEEC;" d="M342.358,418.34c-1.19-0.636-3.04-0.579-4.417-1.155c-2.445-1.023-4.9-4.151-3.848-7.246
					c0.831-2.447,4.118-2.885,6.019-1.832c2.206,1.222,3.274,3.954,3.719,6.461l-0.624-0.589c-0.984-0.582-0.794-3.857-0.443-4.996
					c0.617-1.997,2.392-3.922,4.575-3.693c2.162,0.227,2.717,2.326,2.486,4.406c-0.38,3.423-3.432,4.216-5.113,6.559"/>
				<path style="fill:#F3EEEC;" d="M340.18,417.509c-0.693-3.876-9.568-3.233-11.03-0.17
					C325.928,424.091,338.533,419.216,340.18,417.509z"/>
				<path style="fill:#FC9B56;" d="M336.703,418.797c-0.769-6.807,11.091-9.927,12.349-3.437c0.58,2.994-3.068,6.825-6.865,7.223
					C339.73,422.84,336.974,421.196,336.703,418.797z"/>
			</g>
		</g>
		<g>
			<g>
				<path style="fill:#9E8942;" d="M120.162,255.87c8.531,1.692,19.561-1.64,27.011-5.573c2.288-1.208,11.747-5.942,10.029-10.125
					C153.605,231.418,126.009,249.322,120.162,255.87z"/>
				<path style="fill:#9E8942;" d="M118.314,262.127c1.105-8.627-2.973-19.404-7.407-26.566c-1.361-2.2-6.731-11.314-10.787-9.313
					C91.632,230.434,111.381,256.741,118.314,262.127z"/>
				<path style="fill:#9E8942;" d="M116.863,279.645c8.531,1.692,19.561-1.64,27.011-5.573c2.288-1.208,11.747-5.942,10.029-10.125
					C150.306,255.193,122.711,273.097,116.863,279.645z"/>
				<path style="fill:#9E8942;" d="M115.016,285.902c1.105-8.627-2.973-19.403-7.407-26.566c-1.361-2.2-6.731-11.314-10.787-9.313
					C88.334,254.209,108.083,280.516,115.016,285.902z"/>
				<path style="fill:#9E8942;" d="M114.458,301.564c8.695,0.195,18.985-4.989,25.645-10.148c2.045-1.584,10.547-7.879,8.132-11.703
					C143.182,271.709,119.088,294.105,114.458,301.564z"/>
				<path style="fill:#9E8942;" d="M113.717,308.045c-0.4-8.688-6.276-18.6-11.878-24.891c-1.72-1.932-8.582-9.983-12.232-7.313
					C81.969,281.43,105.959,303.936,113.717,308.045z"/>
				<path style="fill:#9E8942;" d="M115.291,326.828c8.691-0.34,18.643-6.147,24.973-11.705c1.944-1.707,10.042-8.512,7.398-12.181
					C142.127,295.264,119.454,319.098,115.291,326.828z"/>
				<path style="fill:#9E8942;" d="M114.95,333.342c-0.933-8.647-7.407-18.179-13.385-24.114c-1.836-1.823-9.179-9.437-12.658-6.547
					C81.626,308.728,106.954,329.717,114.95,333.342z"/>
				<path style="fill:#9E8942;" d="M117.135,352.106c8.621-1.148,17.989-7.858,23.773-13.982c1.776-1.881,9.205-9.411,6.23-12.817
					C140.911,318.178,120.56,344.022,117.135,352.106z"/>
				<path style="fill:#9E8942;" d="M117.403,358.624c-1.735-8.523-9.069-17.409-15.575-22.761
					c-1.998-1.643-10.019-8.54-13.213-5.339C81.929,337.223,109.104,355.76,117.403,358.624z"/>
				<path style="fill:#9E8942;" d="M120.008,376.037c8.6-1.296,17.851-8.165,23.529-14.388c1.744-1.911,9.042-9.568,6.009-12.922
					C143.199,341.707,123.293,367.895,120.008,376.037z"/>
				<path style="fill:#9E8942;" d="M120.388,382.55c-1.881-8.492-9.367-17.251-15.963-22.49c-2.026-1.609-10.164-8.367-13.303-5.112
					C84.552,361.761,112.041,379.829,120.388,382.55z"/>
				<g>
					<g>
						<path style="fill:#3D3C41;" d="M125.884,234.548c-1.568,4.117-3.119,8.241-4.438,12.444
							c-1.375,4.383-2.423,8.853-3.332,13.355c-1.934,9.583-3.147,19.323-3.906,29.066c-0.798,10.238-1.065,20.517-0.872,30.784
							c0.193,10.255,0.845,20.504,1.961,30.7c1.091,9.964,2.615,19.886,4.661,29.7c0.243,1.166,0.517,2.29,0.885,3.424
							c0.279,0.859,1.797,0.775,1.673-0.226c-0.296-2.397-0.857-4.743-1.321-7.112c-0.472-2.406-0.912-4.817-1.324-7.234
							c-0.839-4.927-1.557-9.873-2.158-14.835c-1.231-10.165-1.994-20.387-2.302-30.621c-0.307-10.211-0.162-20.44,0.494-30.635
							c0.63-9.78,1.717-19.544,3.414-29.198c0.805-4.58,1.819-9.107,2.741-13.662c0.876-4.326,1.861-8.654,3.118-12.885
							c0.298-1.005,0.598-2.006,0.931-3C126.159,234.465,125.937,234.41,125.884,234.548L125.884,234.548z"/>
					</g>
				</g>
				<path style="fill:#9E8942;" d="M122.531,242.904c7.36-4.634,13.082-14.635,15.79-22.612c0.832-2.45,4.45-12.39,0.326-14.247
					C130.018,202.157,122.278,234.128,122.531,242.904z"/>
			</g>
			<g>
				<path style="fill:#C6AB53;" d="M75.206,311.695c6.497-2.702,12.412-9.907,15.649-15.904c0.994-1.842,5.223-9.282,2.185-11.321
					C86.681,280.204,76.189,304.661,75.206,311.695z"/>
				<path style="fill:#C6AB53;" d="M76.78,316.733c-3.14-6.297-10.733-11.705-16.937-14.525c-1.905-0.866-9.617-4.576-11.443-1.405
					C44.578,307.437,69.695,316.233,76.78,316.733z"/>
				<path style="fill:#C6AB53;" d="M83.689,329.163c6.497-2.703,12.412-9.907,15.649-15.904c0.994-1.842,5.223-9.282,2.185-11.321
					C95.165,297.671,84.673,322.128,83.689,329.163z"/>
				<path style="fill:#C6AB53;" d="M85.264,334.2c-3.14-6.297-10.732-11.706-16.937-14.525c-1.905-0.866-9.617-4.576-11.444-1.405
					C53.062,324.904,78.179,333.7,85.264,334.2z"/>
				<path style="fill:#C6AB53;" d="M91.938,344.98c5.933-3.783,10.517-11.899,12.672-18.365c0.662-1.986,3.544-10.044,0.199-11.528
					C97.81,311.981,91.693,337.881,91.938,344.98z"/>
				<path style="fill:#C6AB53;" d="M94.358,349.67c-4.179-5.661-12.591-9.679-19.188-11.386c-2.026-0.524-10.262-2.849-11.514,0.589
					C61.035,346.068,87.293,350.4,94.358,349.67z"/>
				<path style="fill:#C6AB53;" d="M103.87,361.588c5.69-4.14,9.766-12.523,11.519-19.109c0.538-2.022,2.92-10.242-0.51-11.518
					C107.703,328.291,103.189,354.518,103.87,361.588z"/>
				<path style="fill:#C6AB53;" d="M106.573,366.121c-4.519-5.393-13.162-8.887-19.852-10.186
					c-2.055-0.399-10.418-2.212-11.456,1.296C73.092,364.574,99.566,367.283,106.573,366.121z"/>
				<path style="fill:#C6AB53;" d="M116.487,377.751c5.279-4.652,8.556-13.379,9.688-20.1c0.347-2.064,1.952-10.47-1.581-11.421
					C117.2,344.242,115.15,370.775,116.487,377.751z"/>
				<path style="fill:#C6AB53;" d="M119.601,382.012c-5.002-4.948-13.933-7.621-20.715-8.29c-2.083-0.206-10.579-1.232-11.286,2.358
					C86.121,383.593,112.733,383.823,119.601,382.012z"/>
				<path style="fill:#C6AB53;" d="M129.19,392.546c5.198-4.742,8.325-13.524,9.341-20.263c0.312-2.07,1.772-10.502-1.777-11.392
					C129.327,359.029,127.734,385.594,129.19,392.546z"/>
				<path style="fill:#C6AB53;" d="M132.377,396.753c-5.087-4.862-14.062-7.381-20.854-7.934c-2.086-0.17-10.598-1.05-11.243,2.552
					C98.929,398.908,125.541,398.681,132.377,396.753z"/>
				<g>
					<g>
						<path style="fill:#3D3C41;" d="M69.432,294.787c0.782,3.479,1.543,6.966,2.517,10.396c1.017,3.58,2.319,7.062,3.732,10.504
							c3.015,7.347,6.591,14.468,10.484,21.385c4.069,7.229,8.511,14.246,13.256,21.05c4.785,6.861,9.88,13.511,15.264,19.913
							c5.205,6.191,10.686,12.154,16.468,17.811c0.706,0.691,1.422,1.309,2.212,1.903c0.338,0.254,0.865,0.083,1.098-0.219
							c0.274-0.355,0.208-0.786-0.067-1.118c-1.235-1.496-2.684-2.797-4.052-4.172c-1.415-1.422-2.811-2.862-4.189-4.319
							c-2.765-2.923-5.459-5.913-8.084-8.963c-5.384-6.255-10.479-12.758-15.273-19.477c-4.79-6.714-9.285-13.642-13.422-20.777
							c-3.972-6.85-7.632-13.894-10.843-21.133c-1.51-3.405-2.883-6.857-4.285-10.306c-1.354-3.332-2.739-6.653-3.838-10.081
							c-0.262-0.818-0.522-1.632-0.753-2.46C69.618,294.579,69.399,294.64,69.432,294.787L69.432,294.787z"/>
					</g>
				</g>
				<path style="fill:#C6AB53;" d="M70.962,301.912c2.862-6.428,2.207-15.727,0.437-22.308c-0.544-2.021-2.585-10.332-6.194-9.725
					C57.655,271.15,66.842,296.127,70.962,301.912z"/>
			</g>
			<g>
				<path style="fill:#E3CD6D;" d="M102.847,400.502c4.582-5.34,6.617-14.437,6.805-21.249c0.058-2.092,0.48-10.64-3.15-11.091
					C98.904,367.218,100.556,393.779,102.847,400.502z"/>
				<path style="fill:#E3CD6D;" d="M106.522,404.29c-5.641-4.206-14.856-5.614-21.665-5.336c-2.091,0.085-10.648,0.248-10.849,3.901
					C73.586,410.5,99.972,407.036,106.522,404.29z"/>
				<path style="fill:#E3CD6D;" d="M118.291,412.274c4.582-5.34,6.617-14.437,6.805-21.249c0.058-2.092,0.48-10.639-3.15-11.091
					C114.348,378.99,116,405.551,118.291,412.274z"/>
				<path style="fill:#E3CD6D;" d="M121.966,416.061c-5.641-4.206-14.855-5.614-21.665-5.336
					c-2.091,0.085-10.648,0.248-10.849,3.901C89.03,422.272,115.416,418.807,121.966,416.061z"/>
				<path style="fill:#E3CD6D;" d="M132.782,422.678c3.593-6.05,4.028-15.362,3.038-22.105c-0.304-2.071-1.362-10.563-5.016-10.381
					C123.156,390.573,129.365,416.451,132.782,422.678z"/>
				<path style="fill:#E3CD6D;" d="M137.055,425.775c-6.282-3.17-15.601-2.968-22.261-1.519c-2.045,0.445-10.445,2.081-10.014,5.714
					C105.684,437.573,131.077,429.61,137.055,425.775z"/>
				<path style="fill:#E3CD6D;" d="M150.917,432.129c3.214-6.26,3.076-15.58,1.674-22.25c-0.431-2.048-2.008-10.459-5.645-10.053
					C139.337,400.676,147.124,426.124,150.917,432.129z"/>
				<path style="fill:#E3CD6D;" d="M155.373,434.958c-6.465-2.779-15.754-2.004-22.312-0.148c-2.014,0.57-10.298,2.719-9.644,6.319
					C124.785,448.662,149.641,439.152,155.373,434.958z"/>
				<path style="fill:#E3CD6D;" d="M169.464,440.874c2.616-6.532,1.61-15.799-0.408-22.309c-0.62-1.999-2.975-10.227-6.557-9.483
					C155.001,410.637,165.127,435.248,169.464,440.874z"/>
				<path style="fill:#E3CD6D;" d="M174.163,443.275c-6.695-2.164-15.872-0.526-22.229,1.932c-1.952,0.755-9.999,3.667-9.013,7.19
					C144.987,459.77,168.848,447.985,174.163,443.275z"/>
				<path style="fill:#E3CD6D;" d="M187.47,448.358c2.504-6.576,1.339-15.824-0.79-22.298c-0.654-1.988-3.15-10.174-6.719-9.369
					C172.491,418.374,183.038,442.808,187.47,448.358z"/>
				<path style="fill:#E3CD6D;" d="M192.21,450.678c-6.732-2.048-15.879-0.254-22.192,2.313c-1.939,0.788-9.935,3.838-8.888,7.344
					C163.321,467.672,186.976,455.479,192.21,450.678z"/>
				<g>
					<g>
						<path style="fill:#3D3C41;" d="M90.079,388.013c2.259,2.745,4.494,5.521,6.913,8.126c2.546,2.741,5.271,5.284,8.098,7.734
							c5.994,5.196,12.401,9.933,18.985,14.35c6.854,4.598,13.944,8.842,21.206,12.762c7.344,3.965,14.868,7.598,22.542,10.88
							c7.449,3.186,15.035,6.056,22.757,8.512c0.928,0.295,1.829,0.544,2.789,0.716c0.422,0.076,0.83-0.079,1.005-0.493
							c0.149-0.353,0.04-0.893-0.348-1.063c-1.81-0.793-3.709-1.325-5.584-1.946c-1.894-0.628-3.779-1.279-5.657-1.954
							c-3.799-1.365-7.565-2.824-11.295-4.367c-7.618-3.151-15.088-6.666-22.389-10.496c-7.33-3.846-14.491-8.018-21.426-12.539
							c-6.615-4.313-13.043-8.936-19.152-13.942c-2.926-2.398-5.721-4.942-8.61-7.382c-1.372-1.158-2.665-2.406-4.031-3.568
							c-1.354-1.152-2.622-2.386-3.869-3.652c-0.599-0.607-1.193-1.214-1.768-1.844C90.142,387.734,89.985,387.898,90.079,388.013
							L90.079,388.013z"/>
					</g>
				</g>
				<path style="fill:#E3CD6D;" d="M94.651,393.68c-0.341-7.028-5.116-15.034-9.661-20.112c-1.396-1.559-6.963-8.059-9.911-5.891
					C68.911,372.213,88.366,390.372,94.651,393.68z"/>
			</g>
			<g>
				<path style="fill:#C6AB53;" d="M141.196,323.911c9.056-1.372,18.793-8.614,24.768-15.172c1.835-2.014,9.515-10.084,6.318-13.614
					C165.591,287.737,144.649,315.334,141.196,323.911z"/>
				<path style="fill:#C6AB53;" d="M141.601,330.769c-1.988-8.941-9.879-18.16-16.83-23.672c-2.135-1.693-10.711-8.803-14.014-5.372
					C103.844,308.905,132.808,327.911,141.601,330.769z"/>
				<path style="fill:#C6AB53;" d="M146.423,348.643c9.056-1.372,18.793-8.614,24.768-15.172c1.835-2.014,9.515-10.084,6.318-13.614
					C170.817,312.469,149.876,340.066,146.423,348.643z"/>
				<path style="fill:#C6AB53;" d="M146.828,355.501c-1.988-8.941-9.879-18.16-16.83-23.672c-2.135-1.693-10.711-8.803-14.014-5.372
					C109.071,333.637,138.035,352.643,146.828,355.501z"/>
				<path style="fill:#C6AB53;" d="M151.872,371.216c8.684-2.913,17.026-11.726,21.779-19.217c1.46-2.3,7.633-11.574,3.875-14.5
					C169.661,331.377,153.794,362.172,151.872,371.216z"/>
				<path style="fill:#C6AB53;" d="M153.454,377.902c-3.5-8.465-12.863-16.184-20.661-20.415
					c-2.395-1.299-12.069-6.824-14.731-2.874C112.491,362.878,144.3,376.603,153.454,377.902z"/>
				<path style="fill:#C6AB53;" d="M161.724,395.947c8.488-3.442,16.273-12.75,20.557-20.519c1.316-2.386,6.908-12.021,2.977-14.71
					C177.032,355.09,163.087,386.802,161.724,395.947z"/>
				<path style="fill:#C6AB53;" d="M163.714,402.523c-4.014-8.233-13.833-15.363-21.876-19.106
					c-2.47-1.15-12.465-6.069-14.879-1.964C121.906,390.045,154.497,401.789,163.714,402.523z"/>
				<path style="fill:#C6AB53;" d="M172.582,420.331c8.131-4.218,15.013-14.212,18.555-22.346
					c1.088-2.498,5.757-12.613,1.592-14.924C184.015,378.224,173.087,411.098,172.582,420.331z"/>
				<path style="fill:#C6AB53;" d="M175.177,426.692c-4.764-7.823-15.205-14.007-23.562-16.984
					c-2.566-0.914-12.977-4.881-14.998-0.568C132.387,418.166,165.932,426.82,175.177,426.692z"/>
				<path style="fill:#C6AB53;" d="M183.979,443.012c8.057-4.357,14.768-14.467,18.169-22.661c1.045-2.516,5.54-12.709,1.336-14.949
					C194.687,400.716,184.325,433.773,183.979,443.012z"/>
				<path style="fill:#C6AB53;" d="M186.682,449.328c-4.898-7.74-15.443-13.744-23.85-16.577c-2.582-0.87-13.059-4.658-15.005-0.311
					C143.753,441.537,177.441,449.615,186.682,449.328z"/>
				<g>
					<g>
						<path style="fill:#3D3C41;" d="M139.253,300.733c-0.077,4.604-0.141,9.218,0.075,13.818c0.228,4.856,0.779,9.677,1.489,14.486
							c1.503,10.184,3.775,20.262,6.505,30.184c2.859,10.39,6.254,20.632,10.098,30.699c3.872,10.14,8.196,20.111,12.963,29.863
							c4.617,9.444,9.653,18.689,15.163,27.643c0.663,1.077,1.341,2.105,2.111,3.108c0.653,0.85,1.984,0.143,1.471-0.86
							c-1.163-2.27-2.578-4.402-3.886-6.592c-1.331-2.228-2.634-4.472-3.91-6.733c-2.562-4.541-5.014-9.144-7.361-13.8
							c-4.857-9.634-9.271-19.491-13.23-29.527c-3.936-9.976-7.431-20.129-10.412-30.432c-2.872-9.928-5.283-20.006-7.06-30.189
							c-0.838-4.804-1.46-9.626-2.147-14.452c-0.655-4.606-1.223-9.238-1.49-13.885c-0.064-1.111-0.121-2.219-0.146-3.332
							C139.484,300.583,139.255,300.582,139.253,300.733L139.253,300.733z"/>
					</g>
				</g>
				<path style="fill:#C6AB53;" d="M138.91,310.219c5.636-7.221,7.731-19.173,7.564-28.043c-0.051-2.724-0.019-13.864-4.767-14.231
					C131.769,267.177,135.524,301.615,138.91,310.219z"/>
			</g>
			<g>
				<path style="fill:#FF6B75;" d="M112.016,391.444c2.861-3.305,4.482-8.51,3.586-13.841
					C112.954,361.854,106.87,383.355,112.016,391.444z"/>
				<path style="fill:#FF6B75;" d="M114.143,392.073c4.316-0.692,8.904-3.638,11.644-8.297
					C133.882,370.009,115.4,382.569,114.143,392.073z"/>
				<path style="fill:#FF6B75;" d="M115.368,393.922c3.751,2.244,9.159,2.936,14.253,1.128
					C144.671,389.708,122.44,387.45,115.368,393.922z"/>
				<path style="fill:#FF6B75;" d="M115.118,396.126c1.431,4.13,5.129,8.137,10.193,10.026
					C140.274,411.734,124.696,395.714,115.118,396.126z"/>
				<path style="fill:#FF6B75;" d="M113.51,397.654c-1.558,4.084-1.301,9.53,1.364,14.232
					C122.748,425.78,121.112,403.495,113.51,397.654z"/>
				<path style="fill:#FF6B75;" d="M111.296,397.79c-3.819,2.127-7.122,6.464-8.103,11.78
					C100.294,425.275,113.365,407.151,111.296,397.79z"/>
				<path style="fill:#FF6B75;" d="M109.512,396.472c-4.292-0.826-9.611,0.374-13.779,3.815
					C83.417,410.454,105.08,404.972,109.512,396.472z"/>
				<path style="fill:#FF6B75;" d="M108.993,394.315c-2.757-3.392-7.603-5.892-13.008-5.935
					C80.016,388.253,100.134,397.978,108.993,394.315z"/>
				<path style="fill:#FF6B75;" d="M109.982,392.329c0.068-4.371-2.037-9.4-6.15-12.908
					C91.681,369.059,100.841,389.441,109.982,392.329z"/>
				<path style="fill:#F3EEEC;" d="M116.5,394.065c-1.24-5.919-9.79-4.648-8.951,1.167c0.387,2.683,3.752,4.683,6.336,3.775
					C115.557,398.42,116.938,396.151,116.5,394.065z"/>
			</g>
			<g>
				<path style="fill:#F3EEEC;" d="M92.319,292.162c5.182-0.634,10.79-3.945,14.268-9.384
					C116.863,266.707,94.243,280.874,92.319,292.162z"/>
				<path style="fill:#F3EEEC;" d="M93.699,294.424c4.377,2.846,10.802,3.913,16.962,1.982
					C128.863,290.702,102.428,287.014,93.699,294.424z"/>
				<path style="fill:#F3EEEC;" d="M93.302,297.044c1.524,4.994,5.759,9.941,11.72,12.422
					C122.632,316.796,104.752,296.979,93.302,297.044z"/>
				<path style="fill:#F3EEEC;" d="M91.314,298.796c-2.043,4.805-1.978,11.317,0.993,17.049
					C101.086,332.779,100.127,306.106,91.314,298.796z"/>
				<path style="fill:#F3EEEC;" d="M88.665,298.86c-4.653,2.368-8.79,7.398-10.198,13.699
					C74.306,331.174,90.717,310.125,88.665,298.86z"/>
				<path style="fill:#F3EEEC;" d="M86.594,297.206c-5.087-1.177-11.488,0.017-16.617,3.939
					C54.824,312.731,80.925,307.155,86.594,297.206z"/>
				<path style="fill:#F3EEEC;" d="M86.071,294.608c-3.14-4.171-8.812-7.371-15.261-7.664
					C51.754,286.079,75.334,298.586,86.071,294.608z"/>
				<path style="fill:#F3EEEC;" d="M87.34,292.282c0.276-5.214-2.012-11.311-6.764-15.681
					C66.534,263.69,76.558,288.427,87.34,292.282z"/>
				<path style="fill:#F3EEEC;" d="M89.807,291.316c3.563-3.817,5.729-9.958,4.898-16.36
					C92.248,256.04,84.026,281.432,89.807,291.316z"/>
				<path style="fill:#FC9B56;" d="M94.19,298.078c3.645-6.237-4.946-11.963-8.863-6.139c-1.807,2.687-0.429,7.154,2.586,8.421
					C89.864,301.178,92.905,300.276,94.19,298.078z"/>
			</g>
			<g>
				<path style="fill:#FF6B75;" d="M140.556,309.545c-2.141-26.477-39.815-24.203-13.146-7.424
					C131.222,303.832,136.51,305.32,140.556,309.545z"/>
				<path style="fill:#FF6B75;" d="M140.542,310.135c0.485-4.78-11.944-7.61-14.988-7.95c-3.594-0.401-10.606,0.962-10.373,6.044
					c0.194,4.249,7.44,3.952,10.672,3.863C131.158,311.945,136.121,310.619,140.542,310.135z"/>
				<path style="fill:#FF6B75;" d="M141.331,305.549c1.536,4.406,0.041,9.366-2.844,12.976c-2.004,2.508-7.45,6.206-10.603,3.336
					c-3.254-2.962,1.144-7.424,3.199-9.673C133.66,309.367,137.18,308.67,141.331,305.549z"/>
				<path style="fill:#FF6B75;" d="M141.479,306.723c2.416,3.782,5.927,6.434,7.232,11.04c0.877,3.095,0.533,11.904-4.736,10.359
					C136.724,325.994,139.232,311.204,141.479,306.723z"/>
				<path style="fill:#FF6B75;" d="M139.625,309.322c3.943-2.306,9.869-0.768,13.653,1.06c2.924,1.413,9.714,6.096,8.593,10.318
					c-1.477,5.566-8.998,1.288-11.422-0.783C147.409,317.318,144.58,313.165,139.625,309.322z"/>
				<path style="fill:#FF6B75;" d="M142.479,307.211c1.735-0.694,4.272-0.334,6.254-0.917c3.52-1.035,7.376-4.966,6.4-9.386
					c-0.771-3.494-5.228-4.598-8.005-3.438c-3.222,1.346-5.107,4.943-6.102,8.325l0.949-0.716c1.443-0.651,1.681-5.188,1.37-6.808
					c-0.545-2.841-2.694-5.762-5.734-5.779c-3.011-0.017-4.094,2.787-4.093,5.684c0.002,4.769,4.081,6.325,6.037,9.806"/>
				<path style="fill:#FF6B75;" d="M145.603,306.401c1.543-5.229,13.66-2.992,15.205,1.447
					C164.214,317.63,147.611,309,145.603,306.401z"/>
				<path style="fill:#F3EEEC;" d="M150.193,308.702c2.095-9.25-13.752-15.351-16.471-6.611c-1.255,4.032,3.182,9.86,8.347,10.985
					C145.41,313.805,149.454,311.962,150.193,308.702z"/>
			</g>
			<g>
				<path style="fill:#F3EEEC;" d="M156.446,420.168c-3.64-18.837-30.504-14.211-10.027-4.285
					C149.292,416.808,153.206,417.456,156.446,420.168z"/>
				<path style="fill:#F3EEEC;" d="M156.483,420.593c-0.031-3.47-9.179-4.514-11.391-4.516c-2.612-0.002-7.537,1.533-6.966,5.163
					c0.477,3.035,5.655,2.246,7.967,1.925C149.891,422.637,153.348,421.291,156.483,420.593z"/>
				<path style="fill:#F3EEEC;" d="M156.685,417.237c1.453,3.041,0.774,6.72-1.011,9.541c-1.24,1.959-4.855,5.047-7.346,3.237
					c-2.572-1.867,0.231-5.42,1.528-7.198C151.482,420.588,153.953,419.808,156.685,417.237z"/>
				<path style="fill:#F3EEEC;" d="M156.885,418.068c2.035,2.523,4.766,4.148,6.069,7.35c0.875,2.152,1.328,8.503-2.576,7.813
					C155.003,432.28,155.628,421.464,156.885,418.068z"/>
				<path style="fill:#F3EEEC;" d="M155.761,420.082c2.648-1.969,7.023-1.335,9.885-0.324c2.212,0.782,7.458,3.604,6.989,6.724
					c-0.618,4.113-6.357,1.64-8.262,0.345C161.983,425.203,159.622,422.447,155.761,420.082z"/>
				<path style="fill:#F3EEEC;" d="M157.642,418.34c1.19-0.636,3.04-0.579,4.416-1.155c2.445-1.023,4.9-4.151,3.848-7.246
					c-0.831-2.447-4.118-2.885-6.019-1.832c-2.206,1.222-3.274,3.954-3.719,6.461l0.624-0.589c0.984-0.582,0.795-3.857,0.443-4.996
					c-0.617-1.997-2.392-3.922-4.575-3.693c-2.162,0.227-2.717,2.326-2.486,4.406c0.38,3.423,3.432,4.216,5.113,6.559"/>
				<path style="fill:#F3EEEC;" d="M159.82,417.509c0.692-3.876,9.568-3.233,11.03-0.17
					C174.072,424.091,161.467,419.216,159.82,417.509z"/>
				<path style="fill:#FC9B56;" d="M163.297,418.797c0.769-6.807-11.091-9.927-12.349-3.437c-0.58,2.994,3.067,6.825,6.865,7.223
					C160.27,422.84,163.026,421.196,163.297,418.797z"/>
			</g>
		</g>
	</g>
	<path style="fill:#FF6B75;" d="M278.654,49.891c-2.837-5.064-13.123,2.142-15.814,5.801c-2.691-3.659-12.977-10.864-15.814-5.801
		c-5.129,9.154,15.925,28.928,15.925,28.928C267.557,75.17,283.783,59.046,278.654,49.891z"/>
	<g>
		<g>
			<g>
				<g>
					<g>
						<path style="fill:#88585E;" d="M272.89,453.576c0,2.305-4.777,4.865-11.912,4.565c-15.264-0.642-17.301-4.53-17.301-4.53
							c-0.893-0.227-1.591,1.179-5.097,0.892c-3.34-0.273-7.937-2.007-9.125-4.078c-0.894-1.558-1.217-4.88-1.217-8.275
							c0-5.6,6.9-6.068,15.41-6.068C252.16,436.082,272.89,447.976,272.89,453.576z"/>
						<g>
							<g>
								<path style="fill:#3D3C41;" d="M252.078,441.346c0.174-0.579,0.425-1.125,0.856-1.544c0.216-0.21,0.419-0.356,0.71-0.496
									c0.034-0.016,0.068-0.032,0.103-0.047c-0.075,0.032,0.037-0.013,0.042-0.015c0.07-0.026,0.141-0.049,0.213-0.069
									c0.072-0.02,0.145-0.038,0.219-0.052c0.018-0.003,0.148-0.013,0.088-0.016c-0.064-0.003,0.076,0.009,0.088,0.01
									c-0.113-0.047-0.227-0.094-0.341-0.141c0.016,0.017,0.031,0.035,0.046,0.052c0.134,0.151,0.37,0.199,0.559,0.148
									c0.012-0.003,0.024-0.007,0.036-0.01c0.274-0.074,0.444-0.348,0.407-0.624c-0.039-0.293-0.273-0.469-0.558-0.493
									c-0.013-0.001-0.025-0.002-0.038-0.003c-0.19-0.016-0.409,0.119-0.496,0.285c-0.011,0.02-0.021,0.04-0.032,0.061
									c0.096-0.074,0.192-0.148,0.288-0.221c-0.05,0.02-0.099,0.041-0.148,0.062c0.055-0.022,0.058-0.025,0.007-0.009
									c-0.036,0.009-0.073,0.021-0.108,0.032c-0.107,0.035-0.211,0.077-0.315,0.122c-0.161,0.069-0.314,0.151-0.461,0.246
									c-0.301,0.197-0.575,0.435-0.8,0.716c-0.45,0.561-0.774,1.276-0.639,2.006C251.833,441.489,252.041,441.47,252.078,441.346
									L252.078,441.346z"/>
							</g>
						</g>
						<g>
							<g>
								<path style="fill:#3D3C41;" d="M255.197,442.778c0.092-0.565,0.324-1.081,0.672-1.529c0.078-0.1,0.174-0.208,0.269-0.301
									c-0.047,0.046,0.055-0.043,0.08-0.065c0.026-0.022,0.051-0.046,0.077-0.067c0.031-0.027,0.063-0.053,0.095-0.078
									c-0.044,0.035,0.01-0.007,0.028-0.02c0.056-0.041,0.114-0.079,0.176-0.112c0.005-0.003,0.062-0.032,0.063-0.031
									c-0.054,0.022-0.064,0.026-0.032,0.014c0.037-0.013,0.021-0.012-0.048,0.002c0.133-0.009-0.217-0.106-0.146-0.057
									c0.046,0.032,0.12,0.073,0.182,0.071c0.046,0.014,0.039,0.009-0.02-0.015c-0.057-0.027-0.066-0.03-0.026-0.01
									c0.062,0.048,0.142,0.073,0.217,0.09c0.405,0.092,0.805-0.151,0.862-0.574c0.051-0.379-0.257-0.817-0.678-0.782
									c-0.229,0.019-0.388,0.092-0.562,0.226c-0.065,0.05-0.08,0.061-0.131,0.126c0.018-0.023-0.116,0.152-0.034,0.049
									c0.056-0.07,0.004-0.014-0.01,0.002c-0.039,0.043-0.075,0.091-0.107,0.139c0.058-0.058,0.117-0.117,0.175-0.175
									c-0.257,0.185-0.455,0.416-0.644,0.668c-0.165,0.219-0.309,0.466-0.424,0.715c-0.238,0.517-0.361,1.102-0.356,1.67
									C254.877,442.913,255.167,442.967,255.197,442.778L255.197,442.778z"/>
							</g>
						</g>
						<g>
							<g>
								<path style="fill:#3D3C41;" d="M257.121,443.894c0.179-0.511,0.562-0.955,0.972-1.301c0.197-0.166,0.423-0.302,0.658-0.409
									c0.091-0.041,0.223-0.082,0.341-0.109c0.014-0.003,0.099-0.009,0.108-0.022c-0.094-0.004-0.119-0.002-0.073,0.005
									c0.016,0.003,0.032,0.006,0.047,0.009c0.097,0.021,0.192,0.029,0.29,0.034c-0.11-0.046-0.221-0.091-0.331-0.137
									c0.011,0.009,0.023,0.019,0.034,0.028c0.166,0.139,0.368,0.194,0.572,0.108c0.219-0.092,0.344-0.313,0.312-0.548
									c-0.027-0.204-0.173-0.379-0.375-0.435c-0.232-0.064-0.463,0.046-0.591,0.241c-0.008,0.013-0.017,0.025-0.025,0.038
									c0.093-0.072,0.187-0.143,0.28-0.215c-0.034,0.014-0.068,0.027-0.102,0.042c-0.075,0.021-0.141,0.059-0.197,0.115
									c0.039-0.031,0.046-0.036,0.02-0.017c-0.032,0.024-0.063,0.049-0.095,0.073c-0.037,0.026-0.033,0.026,0.011,0.001
									c0.063-0.032,0.047-0.026-0.048,0.017c-0.017,0.007-0.033,0.014-0.05,0.021c-0.138,0.061-0.274,0.132-0.405,0.206
									c-0.271,0.153-0.523,0.347-0.741,0.569c-0.218,0.222-0.395,0.473-0.528,0.754c-0.134,0.281-0.207,0.579-0.25,0.887
									C256.94,443.956,257.084,444.001,257.121,443.894L257.121,443.894z"/>
							</g>
						</g>
						<g>
							<g>
								<path style="fill:#3D3C41;" d="M228.679,447.916c5.017,2.411,10.213,4.474,15.547,6.071c5.78,1.73,11.794,2.925,17.84,3.054
									c1.69,0.036,3.381-0.018,5.064-0.169c0.758-0.068,1.513-0.157,2.265-0.269c0.781-0.115,1.686-0.141,2.369-0.545
									c0.223-0.132,0.109-0.437-0.124-0.459c-0.676-0.062-1.357,0.194-2.026,0.312c-0.758,0.133-1.52,0.241-2.285,0.325
									c-1.408,0.155-2.825,0.226-4.241,0.236c-3.012,0.02-6.026-0.242-9.002-0.702c-5.801-0.897-11.489-2.517-16.99-4.548
									c-2.82-1.041-5.596-2.201-8.323-3.468C228.666,447.704,228.57,447.864,228.679,447.916L228.679,447.916z"/>
							</g>
						</g>
					</g>
					<path style="fill:#3D3C41;" d="M219.956,219.993c0.808,18.676-0.596,214.921,1.205,221.776c1.2,4.567,40.4-1.167,42.079-3.718
						c1.703-2.589,7.768-198.436,7.236-199.605C269.188,235.619,232.226,223.354,219.956,219.993z"/>
				</g>
				<g>
					<g>
						<path style="fill:#88585E;" d="M232.828,459.365c0,2.305-4.777,4.865-11.912,4.565c-15.264-0.642-17.301-4.53-17.301-4.53
							c-0.893-0.227-1.591,1.179-5.097,0.892c-3.34-0.273-7.937-2.007-9.125-4.078c-0.894-1.558-1.217-4.88-1.217-8.275
							c0-5.6,6.9-6.068,15.41-6.068C212.098,441.871,232.828,453.764,232.828,459.365z"/>
						<g>
							<g>
								<path style="fill:#3D3C41;" d="M212.016,447.134c0.174-0.579,0.425-1.125,0.856-1.544c0.216-0.21,0.419-0.356,0.71-0.496
									c0.034-0.016,0.068-0.032,0.103-0.047c-0.075,0.032,0.037-0.013,0.042-0.015c0.07-0.026,0.141-0.049,0.213-0.069
									c0.072-0.02,0.145-0.038,0.219-0.052c0.018-0.003,0.148-0.013,0.088-0.016c-0.064-0.003,0.076,0.009,0.088,0.01
									c-0.114-0.047-0.227-0.094-0.341-0.141c0.016,0.017,0.031,0.035,0.046,0.052c0.134,0.151,0.37,0.199,0.559,0.148
									c0.012-0.003,0.024-0.007,0.036-0.01c0.274-0.074,0.444-0.348,0.407-0.624c-0.039-0.294-0.272-0.469-0.558-0.493
									c-0.012-0.001-0.025-0.002-0.038-0.003c-0.19-0.016-0.409,0.119-0.496,0.285c-0.011,0.02-0.021,0.04-0.032,0.061
									c0.096-0.074,0.192-0.148,0.288-0.221c-0.05,0.02-0.099,0.041-0.148,0.062c0.055-0.022,0.058-0.025,0.007-0.009
									c-0.036,0.009-0.072,0.021-0.108,0.032c-0.107,0.035-0.211,0.077-0.315,0.122c-0.161,0.069-0.314,0.151-0.461,0.247
									c-0.301,0.197-0.575,0.435-0.8,0.715c-0.45,0.561-0.774,1.276-0.639,2.006C211.771,447.277,211.979,447.259,212.016,447.134
									L212.016,447.134z"/>
							</g>
						</g>
						<g>
							<g>
								<path style="fill:#3D3C41;" d="M215.135,448.567c0.092-0.565,0.324-1.081,0.672-1.529c0.078-0.1,0.174-0.208,0.269-0.3
									c-0.047,0.046,0.055-0.043,0.079-0.065c0.026-0.022,0.051-0.046,0.077-0.068c0.031-0.027,0.063-0.053,0.095-0.078
									c-0.045,0.035,0.01-0.007,0.028-0.02c0.056-0.041,0.114-0.079,0.176-0.112c0.005-0.003,0.062-0.032,0.063-0.031
									c-0.054,0.022-0.064,0.026-0.032,0.013c0.037-0.012,0.021-0.012-0.048,0.002c0.133-0.008-0.217-0.106-0.146-0.057
									c0.046,0.032,0.12,0.073,0.182,0.071c0.046,0.014,0.039,0.009-0.02-0.015c-0.057-0.027-0.066-0.03-0.026-0.01
									c0.062,0.048,0.142,0.073,0.217,0.09c0.404,0.092,0.805-0.151,0.861-0.574c0.051-0.379-0.257-0.817-0.678-0.782
									c-0.23,0.019-0.388,0.092-0.562,0.226c-0.065,0.05-0.08,0.061-0.131,0.126c0.018-0.023-0.116,0.152-0.034,0.049
									c0.056-0.07,0.004-0.014-0.01,0.002c-0.039,0.043-0.074,0.091-0.107,0.139c0.058-0.058,0.117-0.117,0.175-0.175
									c-0.257,0.185-0.455,0.416-0.644,0.668c-0.165,0.219-0.309,0.466-0.424,0.715c-0.238,0.517-0.361,1.102-0.356,1.671
									C214.815,448.701,215.105,448.755,215.135,448.567L215.135,448.567z"/>
							</g>
						</g>
						<g>
							<g>
								<path style="fill:#3D3C41;" d="M217.059,449.683c0.179-0.511,0.562-0.955,0.972-1.301c0.197-0.166,0.423-0.302,0.658-0.409
									c0.091-0.042,0.223-0.082,0.341-0.109c0.014-0.003,0.099-0.009,0.108-0.022c-0.094-0.004-0.118-0.002-0.073,0.005
									c0.016,0.003,0.032,0.006,0.048,0.009c0.097,0.021,0.192,0.029,0.29,0.034c-0.11-0.046-0.221-0.091-0.331-0.137
									c0.011,0.009,0.023,0.019,0.034,0.028c0.166,0.139,0.368,0.194,0.572,0.108c0.219-0.092,0.344-0.313,0.312-0.548
									c-0.027-0.204-0.172-0.379-0.375-0.435c-0.232-0.064-0.463,0.046-0.591,0.241c-0.008,0.013-0.017,0.026-0.025,0.038
									c0.093-0.072,0.187-0.143,0.28-0.215c-0.034,0.014-0.068,0.027-0.103,0.042c-0.075,0.021-0.141,0.059-0.197,0.115
									c0.039-0.031,0.046-0.036,0.02-0.017c-0.032,0.024-0.063,0.048-0.095,0.073c-0.037,0.026-0.033,0.026,0.011,0.001
									c0.063-0.032,0.047-0.026-0.048,0.017c-0.017,0.007-0.033,0.014-0.05,0.021c-0.138,0.061-0.274,0.132-0.405,0.206
									c-0.271,0.153-0.523,0.347-0.741,0.569c-0.218,0.222-0.395,0.473-0.528,0.754c-0.134,0.281-0.207,0.579-0.25,0.887
									C216.878,449.745,217.021,449.789,217.059,449.683L217.059,449.683z"/>
							</g>
						</g>
						<g>
							<g>
								<path style="fill:#3D3C41;" d="M188.617,453.704c5.017,2.411,10.212,4.474,15.547,6.071
									c5.78,1.729,11.794,2.925,17.84,3.054c1.69,0.036,3.381-0.018,5.064-0.169c0.757-0.068,1.513-0.158,2.265-0.269
									c0.781-0.116,1.686-0.141,2.369-0.545c0.223-0.132,0.109-0.437-0.124-0.459c-0.676-0.062-1.357,0.194-2.026,0.312
									c-0.758,0.133-1.52,0.241-2.285,0.325c-1.408,0.155-2.825,0.226-4.241,0.236c-3.012,0.02-6.026-0.242-9.002-0.702
									c-5.801-0.897-11.489-2.517-16.99-4.548c-2.82-1.041-5.596-2.201-8.323-3.468
									C188.604,453.492,188.508,453.652,188.617,453.704L188.617,453.704z"/>
							</g>
						</g>
					</g>
					<path style="fill:#3D3C41;" d="M185.759,219.993c0.808,18.676-0.596,214.921,1.205,221.776c1.2,4.567,40.4-1.167,42.079-3.718
						c1.704-2.589,7.769-198.436,7.236-199.605C234.992,235.619,198.029,223.354,185.759,219.993z"/>
				</g>
			</g>
			<g>
				<g>
					<path style="fill:#676572;" d="M185.759,128.652c0.938-0.099,20.358-5.317,21.261-5.394
						c42.772-3.64,47.349,17.152,47.349,17.152c14.584,43.098,19.882,84.984,11.742,110.132c-3.76,11.615-80.026,7.001-81.169,1.996
						C169.826,186.32,185.759,128.652,185.759,128.652z"/>
					<g>
						<g>
							<path style="fill:#3D3C41;" d="M231.235,159.805c0.461,5.891,0.742,11.797,0.918,17.704
								c0.197,6.602,0.273,13.208,0.277,19.814c0.005,6.858-0.082,13.716-0.211,20.573c-0.126,6.662-0.31,13.323-0.55,19.982
								c-0.217,6.016-0.491,12.03-0.829,18.04c-0.018,0.321-0.073,0.664-0.04,0.983c0.035,0.326,0.154,0.661,0.232,0.98
								c0.078,0.318,0.505,0.275,0.603,0c0.104-0.292,0.253-0.598,0.319-0.901c0.074-0.337,0.046-0.718,0.06-1.062
								c0.029-0.697,0.057-1.395,0.084-2.092c0.057-1.442,0.108-2.884,0.162-4.327c0.115-3.081,0.215-6.163,0.306-9.245
								c0.195-6.604,0.347-13.208,0.436-19.814c0.092-6.857,0.108-13.716,0.049-20.573c-0.057-6.662-0.189-13.324-0.437-19.982
								c-0.224-6.019-0.528-12.036-1.012-18.04c-0.055-0.681-0.112-1.361-0.172-2.041
								C231.42,159.681,231.225,159.68,231.235,159.805L231.235,159.805z"/>
						</g>
					</g>
					<g>
						<g>
							<path style="fill:#3D3C41;" d="M206.659,124.082c-2.965,2.977-5.483,6.471-7.705,10.026
								c-0.098,0.157,0.002,0.346,0.163,0.401c3.196,1.09,6.396,2.16,9.57,3.307c-0.067-0.164-0.134-0.329-0.201-0.493
								c-1.596,3.268-3.147,6.566-4.652,9.877c-0.113,0.248-0.022,0.496,0.24,0.59c3.828,1.378,7.796,2.27,11.718,3.33
								c3.632,0.982,7.254,2.175,10.404,4.286c0.909,0.609,1.777,1.286,2.567,2.044c0.84,0.806,1.528,1.761,2.396,2.529
								c0.211,0.187,0.514-0.045,0.387-0.298c-0.454-0.901-1.18-1.618-1.902-2.315c-0.704-0.681-1.452-1.318-2.237-1.903
								c-1.546-1.152-3.247-2.075-5.018-2.832c-3.613-1.543-7.459-2.437-11.24-3.46c-2.316-0.627-4.614-1.308-6.86-2.155
								c0.08,0.197,0.16,0.394,0.24,0.59c1.557-3.292,3.073-6.61,4.537-9.944c0.088-0.201,0.024-0.422-0.2-0.493
								c-3.216-1.017-6.406-2.111-9.604-3.186c0.054,0.134,0.109,0.267,0.163,0.401c2.212-3.577,4.8-6.82,7.499-10.036
								C207.077,124.165,206.832,123.908,206.659,124.082L206.659,124.082z"/>
						</g>
					</g>
					<g>
						<g>
							<path style="fill:#3D3C41;" d="M243.711,129.669c1.603,1.645,3.069,3.419,4.365,5.316c0.608,0.891,1.171,1.814,1.699,2.755
								c0.281,0.502,0.557,1.009,0.805,1.529c0.275,0.574,0.35,1.199,0.58,1.79c0.089-0.157,0.178-0.314,0.267-0.471
								c-1.442,0.211-2.828,0.652-4.163,1.23c-0.664,0.287-1.313,0.61-1.942,0.968c-0.688,0.391-1.22,0.88-1.85,1.342
								c-0.185,0.135-0.242,0.378-0.072,0.557c0.713,0.747,1.426,1.493,2.139,2.24c0.496,0.519,2.005,1.631,1.431,2.413
								c-0.454,0.618-1.513,0.991-2.179,1.333c-0.748,0.384-1.508,0.746-2.27,1.101c-2.702,1.257-5.531,2.34-7.936,4.138
								c-0.663,0.496-1.294,1.031-1.882,1.614c-0.634,0.629-1.415,1.32-1.62,2.213c-0.051,0.221,0.177,0.4,0.379,0.291
								c0.774-0.419,1.274-1.234,1.897-1.848c0.595-0.587,1.233-1.13,1.911-1.618c1.31-0.942,2.736-1.699,4.192-2.388
								c1.511-0.715,3.054-1.362,4.548-2.111c0.839-0.421,1.665-0.871,2.47-1.353c0.587-0.351,1.3-0.78,1.415-1.518
								c0.146-0.939-0.814-1.636-1.378-2.234c-0.872-0.925-1.744-1.849-2.615-2.774c-0.024,0.186-0.048,0.371-0.072,0.557
								c0.575-0.416,1.258-0.73,1.873-1.089c0.594-0.346,1.206-0.66,1.832-0.943c1.318-0.594,2.701-1.015,4.096-1.383
								c0.248-0.065,0.342-0.347,0.229-0.562c-0.272-0.519-0.676-0.925-0.965-1.43c-0.286-0.499-0.549-1.011-0.835-1.511
								c-0.59-1.031-1.23-2.032-1.904-3.01c-1.29-1.875-2.742-3.631-4.329-5.261C243.753,129.477,243.637,129.594,243.711,129.669
								L243.711,129.669z"/>
						</g>
					</g>
				</g>
				<path style="fill:#FBD0C9;" d="M211.177,96.805c0.1,6.188-4.63,27.309-1.23,31.201c4.738,5.424,17.402,20.563,19.631,22.129
					c4.999-2.781,4.93-36.065,4.871-48.116C231.139,101.16,211.177,96.805,211.177,96.805z"/>
				<path style="fill:#F3EEEC;" d="M227.474,139.516c2.21-2.148,4.155-4.646,6.374-6.707c0.04,3.373-0.629,6.854-1.091,10.192
					c-0.28,2.024-1.645,15.242-1.645,15.242s-10.765-14.674-12.556-17.269c-2.586-3.745-11.928-12.721-9.858-17.847
					C208.698,123.127,220.075,135.261,227.474,139.516z"/>
				<g>
					<path style="fill:#3D3C41;" d="M225.339,141.409c-0.904-5.428,7.932-4.076,6.372,0.923c-1.058,3.39-6.644,2.513-6.759-0.923
						H225.339z"/>
					<path style="fill:#3D3C41;" d="M230.154,140.655c2.027-1.918,4.555-5.41,7.659-5.382c1.043,1.891,0.985,8.76-0.791,11.415
						C233.822,144.957,230.154,140.655,230.154,140.655z"/>
					<path style="fill:#3D3C41;" d="M226.731,140.655c-1.576-2.408-5.445-4.147-8.237-4.82c-0.192,3.653-0.383,7.85,0.868,11.344
						C222.662,146.268,226.731,140.655,226.731,140.655z"/>
				</g>
			</g>
			<g>
				<path style="fill:#FBD0C9;" d="M173.327,275.786c-0.2,8.529,1.088,16.383,2.875,22.266c0.945,3.109,6.266,13.536,7.882,13.194
					c2.53-0.536-3.852-11.771-3.148-12.198c1.165-0.708,7.127,15.989,9.712,15.681c2.711-0.323-6.442-16.978-4.74-17.874
					c0.941-0.496,7.589,20.637,9.931,19.99c3.184-0.879-5.002-17.51-4.982-21.333c0.012-2.206,5.016,13.15,7.483,13.318
					c2.959,0.201-5.793-17.549-4.837-21.944c1.818-0.762,11.628,9.932,10.114,5.39c-1.314-3.942-11.257-14.802-15.678-18.414
					c-5.54-4.526-3.784-40.943-2.74-43.844c-0.345-12.652-1.235-18.261-9.393-18.37
					C161.566,211.458,173.549,266.272,173.327,275.786z"/>
				<path style="fill:#676572;" d="M193.22,126.777c-10.821,2.834-14.936,3.167-20.26,9.911
					c-16.74,21.206-10.214,136.745-1.329,138.721c1.696,0.377,15.154-4.495,15.154-4.495c0.494-3.716-1.851-38.161,4.156-68.74
					C198.476,163.821,196.169,128.992,193.22,126.777z"/>
				<g>
					<g>
						<path style="fill:#3D3C41;" d="M190.745,156.963c-1.268,12.357-2.051,24.745-2.961,37.131
							c-0.976,13.289-1.52,26.626-1.864,39.945c-0.088,3.398-0.159,6.796-0.208,10.195c-0.045,3.129-0.347,6.392,0.268,9.476
							c0.069,0.346,0.633,0.348,0.701,0c0.535-2.755,0.331-5.614,0.351-8.409c0.022-3.056,0.062-6.113,0.116-9.169
							c0.115-6.513,0.291-13.025,0.492-19.535c0.41-13.316,0.905-26.635,1.746-39.932c0.416-6.572,0.885-13.142,1.462-19.702
							C190.852,156.898,190.752,156.899,190.745,156.963L190.745,156.963z"/>
					</g>
				</g>
				<g>
					<g>
						<path style="fill:#3D3C41;" d="M175.035,135.934c2.222,0.309,4.396,0.531,6.564,1.153c2.078,0.596,3.939,1.53,5.428,3.124
							c1.353,1.449,2.293,3.217,2.918,5.089c0.343,1.027,0.59,2.069,0.822,3.125c0.226,1.029,0.275,2.297,0.796,3.222
							c0.373,0.661,1.345,0.336,1.376-0.373c0.027-0.613-0.197-1.203-0.375-1.783c-0.182-0.591-0.373-1.18-0.577-1.764
							c-0.37-1.058-0.808-2.107-1.293-3.118c-0.852-1.772-1.932-3.481-3.34-4.866c-1.463-1.438-3.246-2.351-5.211-2.903
							c-2.237-0.628-4.751-1.134-7.085-1.077C174.965,135.768,174.935,135.921,175.035,135.934L175.035,135.934z"/>
					</g>
				</g>
			</g>
			<g>
				<g>
					<path style="fill:#FBD0C9;" d="M243.62,97.91c0,13.806-8.293,22.946-15.568,22.946c-7.276,0-23.981-9.14-23.981-22.946
						c0-13.806,2.239-24.998,19.775-24.998C241.381,72.912,243.62,84.104,243.62,97.91z"/>
					<g>
						<g>
							<path style="fill:#3D3C41;" d="M234.928,118.211c-2.413,0.557-4.782,0.942-7.266,0.855c-3.292-0.115-6.609-0.875-9.786-1.693
								c-0.199-0.051-0.341,0.247-0.144,0.343c1.672,0.815,3.382,1.491,5.221,1.812c1.53,0.267,3.073,0.384,4.625,0.316
								c2.508-0.11,5.026-0.65,7.407-1.429C235.113,118.372,235.061,118.18,234.928,118.211L234.928,118.211z"/>
						</g>
					</g>
				</g>
				<g>
					<path style="fill:#3D3C41;" d="M237.827,94.031c0,1.222-0.459,2.213-1.026,2.213c-0.566,0-1.026-0.991-1.026-2.213
						c0-1.222,0.459-2.213,1.026-2.213C237.367,91.819,237.827,92.809,237.827,94.031z"/>
					<g>
						<g>
							<path style="fill:#FC9B56;" d="M217.826,89.632c0.227-0.03,0.455-0.047,0.682-0.077c0.262-0.035,0.514-0.137,0.769-0.206
								c0.508-0.136,1.018-0.265,1.529-0.394c0.25-0.063,0.499-0.123,0.754-0.166c0.128-0.022,0.255-0.042,0.382-0.064
								c0.123-0.019,0.146-0.023,0.069-0.012c0.055-0.007,0.109-0.012,0.164-0.017c0.534-0.048,1.015-0.021,1.424,0.071
								c0.507,0.114,1.102-0.154,1.225-0.696c0.114-0.5-0.15-1.11-0.696-1.225c-1.222-0.258-2.488-0.153-3.65,0.302
								c-0.547,0.215-1.066,0.494-1.546,0.834c-0.24,0.17-0.473,0.352-0.708,0.53c-0.232,0.176-0.403,0.429-0.595,0.646
								C217.491,89.316,217.566,89.666,217.826,89.632L217.826,89.632z"/>
						</g>
					</g>
					<g>
						<g>
							<path style="fill:#FC9B56;" d="M240.565,90.49c-0.09-0.215-0.152-0.466-0.275-0.665c-0.126-0.205-0.313-0.427-0.432-0.587
								c-0.334-0.448-0.736-0.84-1.187-1.168c-0.857-0.623-1.949-0.986-3.015-0.906c-0.518,0.039-1.021,0.43-0.996,0.996
								c0.022,0.5,0.44,1.046,0.996,0.996c0.215-0.019,0.425-0.016,0.639-0.003c0.132,0.008,0.035-0.021-0.026-0.007
								c0.039-0.009,0.117,0.02,0.157,0.028c0.104,0.021,0.208,0.046,0.311,0.074c0.103,0.029,0.205,0.062,0.306,0.098
								c0.051,0.018,0.1,0.039,0.151,0.057c-0.211-0.079,0.105,0.044,0.149,0.062c0.05,0.02,0.1,0.039,0.15,0.058
								c-0.083-0.032-0.087-0.039-0.003,0.001c0.111,0.052,0.221,0.106,0.33,0.163c0.386,0.205,0.775,0.407,1.163,0.608
								c0.202,0.105,0.397,0.235,0.605,0.328c0.205,0.092,0.424,0.137,0.637,0.208C240.409,90.892,240.647,90.686,240.565,90.49
								L240.565,90.49z"/>
						</g>
					</g>
					<path style="fill:#F3EEEC;" d="M222.838,106.403c4.082,0.325,8.178,0.594,12.253,0.871
						C234.618,111.639,224.788,115.293,222.838,106.403z"/>
					<g>
						<g>
							<path style="fill:#3D3C41;" d="M232.734,92.948c0.028,1.981,0.126,3.96,0.3,5.934c0.081,0.917,0.49,2.219-0.141,2.996
								c-0.254,0.313-0.588,0.534-0.951,0.702c-0.362,0.168-0.719,0.226-0.965,0.556c-0.138,0.186,0.018,0.427,0.2,0.491
								c0.758,0.266,1.609-0.697,2.031-1.209c0.639-0.777,0.469-1.556,0.337-2.489c-0.327-2.316-0.552-4.645-0.678-6.981
								C232.863,92.864,232.733,92.862,232.734,92.948L232.734,92.948z"/>
						</g>
					</g>
					<path style="fill:#3D3C41;" d="M222.515,93.505c0,1.222-0.459,2.213-1.026,2.213c-0.566,0-1.026-0.991-1.026-2.213
						c0-1.222,0.459-2.213,1.026-2.213C222.055,91.292,222.515,92.283,222.515,93.505z"/>
				</g>
				<g>
					<path style="fill:#FC9B56;" d="M239.975,64.214c-7.593-7.28-27.352-4.98-36.145-1.124c-4.172,1.829-2.526,7.942-2.526,7.942
						s-3.999-1.881-3.997,8.463c0.001,5.859,6.66,21.863,7.708,23.996c2.417-4.301,1.884-21.28,5.927-22.118
						c7.778-1.612,23.538-0.263,30.903,2.165C244.56,77.379,245.327,69.346,239.975,64.214z"/>
					<g>
						<g>
							<path style="fill:#3D3C41;" d="M240.491,69.279c0.4,1.967,0.329,3.978-0.225,5.909c-0.272,0.95-0.654,1.856-1.154,2.708
								c-0.24,0.409-0.503,0.803-0.787,1.183c-0.214,0.287-0.594,0.861-1.031,0.727c-0.103-0.031-0.202,0.072-0.173,0.173
								c0.1,0.348,0.368,0.505,0.73,0.464c0.513-0.057,0.757-0.434,1.018-0.841c0.65-1.014,1.127-2.138,1.484-3.286
								c0.707-2.275,0.795-4.75,0.257-7.07C240.594,69.167,240.476,69.201,240.491,69.279L240.491,69.279z"/>
						</g>
					</g>
					<g>
						<g>
							<path style="fill:#3D3C41;" d="M235.209,68.981c0.433,1.765,0.27,3.493-0.358,5.186c-0.602,1.625-1.652,3.055-2.538,4.531
								c-0.145,0.241,0.181,0.477,0.38,0.294c1.379-1.269,2.15-2.986,2.606-4.784c0.432-1.703,0.502-3.561,0.037-5.261
								C235.314,68.863,235.188,68.898,235.209,68.981L235.209,68.981z"/>
						</g>
					</g>
					<g>
						<g>
							<path style="fill:#3D3C41;" d="M227.754,68.265c0.024,1.743-0.164,3.496-0.662,5.171c-0.242,0.811-0.516,1.606-0.851,2.384
								c-0.161,0.375-0.321,0.751-0.494,1.121c-0.093,0.2-0.174,0.399-0.259,0.602c-0.02,0.077-0.053,0.149-0.097,0.215
								c-0.058,0.105-0.057,0.122,0.003,0.051c-0.131-0.077-0.301,0.051-0.258,0.199c0.07,0.243,0.251,0.333,0.498,0.343
								c0.4,0.016,0.702-0.307,0.859-0.644c0.454-0.976,0.695-2.041,0.928-3.085c0.463-2.07,0.614-4.24,0.529-6.356
								C227.944,68.14,227.752,68.139,227.754,68.265L227.754,68.265z"/>
						</g>
					</g>
					<g>
						<g>
							<path style="fill:#3D3C41;" d="M221.037,69.121c-0.009,1.494-0.131,2.994-0.429,4.459c-0.127,0.624-0.245,1.302-0.496,1.89
								c-0.094,0.221-0.194,0.425-0.27,0.654c-0.096,0.289-0.23,0.405-0.477,0.575c-0.073,0.05-0.067,0.167,0.025,0.193
								c0.461,0.13,1.005-0.219,1.281-0.567c0.404-0.508,0.405-1.398,0.473-2.013c0.19-1.724,0.22-3.464,0.058-5.192
								C221.192,69.018,221.038,69.014,221.037,69.121L221.037,69.121z"/>
						</g>
					</g>
					<g>
						<g>
							<path style="fill:#3D3C41;" d="M215.833,68.976c-0.077,1.694-0.237,3.385-0.578,5.048c-0.151,0.736-0.301,1.479-0.519,2.199
								c-0.211,0.697-0.607,1.3-0.787,1.998c-0.052,0.201,0.176,0.396,0.362,0.278c0.335-0.212,0.514-0.394,0.67-0.763
								c0.142-0.334,0.25-0.676,0.333-1.029c0.181-0.772,0.263-1.571,0.338-2.359c0.171-1.786,0.308-3.578,0.346-5.372
								C215.999,68.87,215.838,68.871,215.833,68.976L215.833,68.976z"/>
						</g>
					</g>
					<g>
						<g>
							<path style="fill:#3D3C41;" d="M209.617,71.691c0.045,1.209,0.083,2.419,0.114,3.629c0.015,0.594,0.028,1.187,0.04,1.781
								c0.006,0.297,0.011,0.594,0.02,0.891c0.008,0.252-0.016,0.501,0.113,0.725c0.028,0.048,0.108,0.053,0.135,0
								c0.116-0.232,0.08-0.468,0.072-0.725c-0.009-0.274-0.021-0.548-0.035-0.822c-0.03-0.617-0.062-1.233-0.096-1.849
								c-0.067-1.21-0.141-2.42-0.222-3.629C209.752,71.602,209.614,71.6,209.617,71.691L209.617,71.691z"/>
						</g>
					</g>
					<g>
						<g>
							<path style="fill:#3D3C41;" d="M200.926,70.985c1.225,0.764,2.31,1.721,3.198,2.86c0.434,0.557,0.812,1.161,1.142,1.785
								c0.165,0.312,0.328,0.625,0.474,0.947c0.069,0.153,0.127,0.312,0.201,0.463c0.087,0.178,0.209,0.279,0.33,0.428
								c0.079,0.097,0.254,0.017,0.247-0.102c-0.011-0.198,0.007-0.348-0.064-0.541c-0.055-0.148-0.13-0.29-0.199-0.431
								c-0.163-0.331-0.338-0.658-0.535-0.969c-0.396-0.625-0.85-1.209-1.34-1.762c-0.973-1.098-2.117-2.052-3.385-2.791
								C200.919,70.827,200.853,70.94,200.926,70.985L200.926,70.985z"/>
						</g>
					</g>
					<g>
						<g>
							<path style="fill:#3D3C41;" d="M205.396,78.108c-0.615,1.822-1.243,3.654-1.578,5.553c-0.152,0.862-0.249,1.738-0.255,2.614
								c-0.003,0.454,0.022,0.909,0.067,1.36c0.037,0.37,0.029,0.789,0.322,1.049c0.057,0.05,0.15,0.047,0.19-0.025
								c0.179-0.321,0.069-0.674,0.028-1.025c-0.052-0.452-0.08-0.906-0.091-1.36c-0.023-0.936,0.047-1.871,0.192-2.796
								c0.283-1.808,0.81-3.563,1.343-5.311C205.658,78.028,205.442,77.971,205.396,78.108L205.396,78.108z"/>
						</g>
					</g>
					<g>
						<g>
							<path style="fill:#3D3C41;" d="M202.308,76.211c-0.714,2.22-1.152,4.519-1.288,6.848c-0.07,1.193-0.061,2.391,0.028,3.582
								c0.032,0.427-0.066,1.766,0.666,1.71c0.167-0.013,0.191-0.225,0.039-0.284c-0.284-0.111-0.283-1.381-0.306-1.65
								c-0.039-0.447-0.067-0.895-0.084-1.343c-0.037-0.97-0.021-1.943,0.048-2.911c0.141-2.003,0.512-3.978,1.085-5.901
								C202.533,76.142,202.346,76.092,202.308,76.211L202.308,76.211z"/>
						</g>
					</g>
					<g>
						<g>
							<path style="fill:#3D3C41;" d="M200.192,73.226c-0.579,1.553-1.001,3.16-1.244,4.8c-0.113,0.763-0.19,1.529-0.221,2.3
								c-0.029,0.73-0.151,1.685,0.119,2.38c0.034,0.087,0.169,0.105,0.196,0c0.181-0.712,0.026-1.559,0.047-2.293
								c0.023-0.783,0.078-1.567,0.17-2.345c0.194-1.633,0.569-3.24,1.098-4.797C200.393,73.166,200.23,73.124,200.192,73.226
								L200.192,73.226z"/>
						</g>
					</g>
				</g>
				<g>
					<path style="fill:#FBD0C9;" d="M208.003,96.304c-0.321-2.074-2.836-4.146-4.681-4.776c-4.727-1.615-3.632,4.644-2.626,7.48
						c0.579,1.632,2.765,7.107,5.451,6.649C208.563,105.245,209.44,98.08,208.003,96.304z"/>
					<g>
						<g>
							<path style="fill:#3D3C41;" d="M205.267,96.052c-0.231-0.826-0.666-1.577-1.313-2.149c-0.557-0.493-1.381-0.842-2.061-0.371
								c-1.238,0.857-0.746,2.892-0.267,4.018c0.192,0.452,0.436,0.88,0.729,1.274c0.272,0.366,0.574,0.746,0.987,0.959
								c0.061,0.031,0.147-0.036,0.102-0.102c-0.259-0.372-0.598-0.678-0.864-1.045c-0.279-0.386-0.516-0.807-0.696-1.248
								c-0.313-0.764-0.523-1.679-0.354-2.502c0.072-0.353,0.213-0.725,0.499-0.96c0.371-0.304,0.851-0.262,1.257-0.051
								c0.839,0.435,1.459,1.401,1.839,2.237C205.161,96.194,205.29,96.135,205.267,96.052L205.267,96.052z"/>
						</g>
					</g>
					<g>
						<g>
							<path style="fill:#3D3C41;" d="M201.748,93.874c0.125,0.273,0.301,0.526,0.443,0.79c0.14,0.26,0.267,0.525,0.38,0.798
								c0.111,0.268,0.214,0.54,0.308,0.815c0.1,0.292,0.233,0.528,0.449,0.749c0.069,0.071,0.171,0.012,0.18-0.075
								c0.034-0.316-0.028-0.585-0.164-0.871c-0.133-0.28-0.276-0.556-0.427-0.826c-0.147-0.263-0.299-0.525-0.454-0.783
								c-0.155-0.258-0.307-0.534-0.507-0.759C201.849,93.593,201.689,93.746,201.748,93.874L201.748,93.874z"/>
						</g>
					</g>
				</g>
			</g>
		</g>
		<g>
			<g>
				<g>
					<path style="fill:#FF876B;" d="M253.079,148.587c3.968,3.449,4.517,8.548,5.879,13.784c0.892,3.427,26.905,1.486,26.225-2.536
						c-0.713-4.216-5.539-27.809-7.344-28.278c-3.827-0.995-13.555,6.399-17.049,8.146c-2.393,1.196-4.169,3.346-6.535,4.418"/>
					<g>
						<defs>
							<path id="SVGID_1_" d="M318.09,261.761c-12.29-27.015-21.093-27.496-19.021-35.261c3.17-11.882,9.891-39.968-13.472-70.13
								c-2.206-2.848-25.413,3.297-26.282,3.822c0,0-18.814,25.969-14.083,41.466c3.216,10.534,18.333,35.041,15.477,46.374
								c-30.116,119.489-19.376,206.424-17.794,210.134c3.858,9.048,86.082,3.702,88.869,1.069
								C345.48,446.3,331.523,291.288,318.09,261.761z"/>
						</defs>
						<clipPath id="SVGID_00000170260214803252511330000010066684878122104988_">
							<use xlink:href="#SVGID_1_"  style="overflow:visible;"/>
						</clipPath>
						<path style="clip-path:url(#SVGID_00000170260214803252511330000010066684878122104988_);fill:#F3EEEC;" d="M318.09,261.761
							c-12.29-27.015-21.093-27.496-19.021-35.261c3.17-11.882,9.891-39.968-13.472-70.13c-2.206-2.848-25.413,3.297-26.282,3.822
							c0,0-18.814,25.969-14.083,41.466c3.216,10.534,18.333,35.041,15.477,46.374c-30.116,119.489-19.376,206.424-17.794,210.134
							c3.858,9.048,86.082,3.702,88.869,1.069C345.48,446.3,331.523,291.288,318.09,261.761z"/>
						<g style="clip-path:url(#SVGID_00000170260214803252511330000010066684878122104988_);">
							<g>
								<path style="fill:#3D3C41;" d="M260.975,329.894c-1.792,8.586-3.333,17.226-4.612,25.904
									c-1.271,8.616-2.296,17.27-3.063,25.946c-0.773,8.746-1.352,17.509-1.612,26.286c-0.26,8.773-0.257,17.549,0.008,26.321
									c0.132,4.364,0.341,8.723,0.627,13.079c0.287,4.372,0.533,8.783,1.135,13.125c0.147,1.061,0.342,2.116,0.526,3.171
									c0.107,0.614,1.104,0.468,1.082-0.146c-0.157-4.361-0.586-8.694-0.919-13.045c-0.334-4.354-0.597-8.713-0.824-13.074
									c-0.453-8.72-0.645-17.459-0.575-26.19c0.07-8.682,0.336-17.374,0.931-26.037c0.598-8.707,1.452-17.396,2.579-26.05
									c1.137-8.733,2.54-17.428,4.211-26.075c0.205-1.061,0.414-2.122,0.627-3.182
									C261.112,329.849,260.992,329.815,260.975,329.894L260.975,329.894z"/>
							</g>
						</g>
						<g style="clip-path:url(#SVGID_00000170260214803252511330000010066684878122104988_);">
							<g>
								<path style="fill:#3D3C41;" d="M282.723,351.54c-0.712,14.695-1.308,29.402-1.8,44.105
									c-0.489,14.617-0.761,29.254-0.81,43.878c-0.013,4.072-0.001,8.144,0.03,12.216c0.032,4.121-0.136,8.327,0.421,12.417
									c0.124,0.908,1.411,0.577,1.489-0.201c0.363-3.627,0.111-7.33,0.055-10.969c-0.056-3.656-0.098-7.313-0.147-10.97
									c-0.098-7.312-0.224-14.628-0.232-21.94c-0.015-14.619-0.041-29.258,0.361-43.872c0.226-8.224,0.49-16.445,0.835-24.665
									C282.932,351.409,282.73,351.409,282.723,351.54L282.723,351.54z"/>
							</g>
						</g>
						<g style="clip-path:url(#SVGID_00000170260214803252511330000010066684878122104988_);">
							<g>
								<path style="fill:#3D3C41;" d="M302.826,370.327c0.894,12.846,1.555,25.698,2.022,38.566
									c0.464,12.782,0.707,25.576,0.843,38.365c0.038,3.572,0.069,7.145,0.089,10.717c0.01,1.779-0.139,3.672,0.195,5.428
									c0.349,1.838,0.416,3.672,0.511,5.539c0.015,0.286,0.433,0.287,0.445,0c0.072-1.623,0.029-3.301,0.321-4.902
									c0.292-1.602,0.274-3.194,0.249-4.819c-0.049-3.199-0.108-6.397-0.187-9.596c-0.16-6.44-0.383-12.876-0.631-19.312
									c-0.492-12.79-1.229-25.578-2.104-38.348c-0.494-7.214-0.961-14.429-1.513-21.639
									C303.056,370.172,302.815,370.171,302.826,370.327L302.826,370.327z"/>
							</g>
						</g>
						<g style="clip-path:url(#SVGID_00000170260214803252511330000010066684878122104988_);">
							<g>
								<path style="fill:#3D3C41;" d="M321.526,336.66c1.258,9.259,2.267,18.552,2.962,27.87c0.693,9.284,1.147,18.571,1.326,27.88
									c0.178,9.263,0.084,18.531-0.18,27.791c-0.266,9.307-0.763,18.612-1.5,27.893c-0.333,4.189-0.633,8.4-1.315,12.549
									c-0.325,1.974-0.74,3.936-1.301,5.857c-0.551,1.887-1.108,3.837-1.918,5.628c-0.422,0.932-0.771,1.874-1.256,2.78
									c-0.209,0.39,0.34,0.876,0.644,0.497c1.234-1.538,2.39-3.168,3.194-4.977c0.827-1.859,1.41-3.803,1.865-5.784
									c0.911-3.969,1.329-8.037,1.674-12.088c0.797-9.359,1.316-18.743,1.551-28.133c0.237-9.447,0.156-18.893-0.186-28.336
									c-0.342-9.403-0.989-18.787-1.773-28.162c-0.777-9.288-1.892-18.56-3.179-27.789c-0.163-1.169-0.33-2.337-0.501-3.504
									C321.621,336.562,321.516,336.592,321.526,336.66L321.526,336.66z"/>
							</g>
						</g>
					</g>
				</g>
				<g>
					<path style="fill:#FF876B;" d="M224.485,196.386c-4.99-5.879-8.551-12.129-10.641-17.279
						c-1.104-2.722-3.294-13.073-1.965-13.752c2.082-1.062,3.987,10.46,4.724,10.36c1.221-0.166-4.084-15.286-2.093-16.54
						c2.088-1.314,5.128,15.591,6.833,15.253c0.943-0.187-6.403-18.814-4.389-19.692c2.736-1.193,6.441,15.146,8.63,17.821
						c1.263,1.544-3.953-12.091-2.315-13.611c1.964-1.824,5.909,15.624,9.079,18.168c1.71-0.498,2.522-13.59,4.041-9.538
						c1.318,3.517,0.508,16.801-0.545,21.852c-1.319,6.33,19.08,27.156,21.463,28.6c1.422-7.683-3.288-18.554,6.043-37.866
						c8.9-11.222,15.65-3.804,15.559,4.21c-0.014,1.232-3.77,56.321-16.214,55.664C249.842,239.36,230.05,202.943,224.485,196.386z"
						/>
					<g>
						<g>
							<path style="fill:#3D3C41;" d="M255.996,217.49c1.285,2.119,2.334,4.347,3.055,6.722c0.348,1.144,0.639,2.305,0.846,3.483
								c0.103,0.589,0.208,1.188,0.239,1.786c0.017,0.325,0.088,0.963-0.189,1.198c-0.104,0.089-0.085,0.305,0.047,0.362
								c1.074,0.465,1.434-0.934,1.316-1.719c-0.221-1.465-0.565-2.915-1.025-4.324c-0.897-2.751-2.323-5.374-4.13-7.631
								C256.083,217.276,255.937,217.393,255.996,217.49L255.996,217.49z"/>
						</g>
					</g>
				</g>
				<g>
					<path style="fill:#3D3C41;" d="M262.953,101.099c-1.335-3.423-7.751-2.937-10.424-1.656
						c-7.067,3.387-15.325,14.146-13.105,21.078c8.45,26.383,4.072,39.314,4.072,39.314c3.55-0.544,15.246-34.901,17.394-42.283
						C262.23,112.948,264.203,107.627,262.953,101.099z"/>
					<g>
						<path style="fill:#FF876B;" d="M242.616,132.027c0,12.926,7.764,21.483,14.576,21.483c6.812,0,22.453-8.557,22.453-21.483
							s-2.096-23.405-18.514-23.405C244.712,108.622,242.616,119.101,242.616,132.027z"/>
						<g>
							<g>
								<path style="fill:#3D3C41;" d="M257.331,153.973c2.877-0.549,5.736-1.402,8.46-2.475c1.295-0.51,2.58-1.061,3.808-1.719
									c0.621-0.332,1.232-0.687,1.801-1.103c0.518-0.379,1.183-0.785,1.35-1.435c0.114-0.443-0.321-0.999-0.808-0.808
									c-0.584,0.229-0.911,0.754-1.377,1.16c-0.517,0.45-1.086,0.835-1.661,1.205c-1.174,0.756-2.369,1.463-3.601,2.12
									c-2.521,1.345-5.238,2.243-8.017,2.888C257.176,153.832,257.223,153.993,257.331,153.973L257.331,153.973z"/>
							</g>
						</g>
					</g>
					<path style="fill:#3D3C41;" d="M277.037,105.866c2.484-2.938,4.174-10.067-3.478-13.96c-4.803-2.443-10.708,1.705-13.873,6.361
						c-1.285,1.891-15.808,12.856-13.425,13.42c-0.054,3.454,7.758,11.829,13.983,14.456c13.885,5.859,3.106,32.098,3.106,32.098
						c5.838-3.981,8.513-13.629,9.681-23.583c3.362,3.546,7.409,5.235,8.658,3.362C285.158,132.821,291.814,113.242,277.037,105.866
						z"/>
					<g>
						<ellipse style="fill:#3D3C41;" cx="246.851" cy="130.128" rx="0.869" ry="1.875"/>
						<g>
							<g>
								<path style="fill:#3D3C41;" d="M263.03,126.066c-0.731-0.611-1.528-1.138-2.431-1.465c-0.936-0.338-1.94-0.438-2.917-0.229
									c-0.626,0.134-0.362,1.099,0.265,0.961c1.699-0.377,3.358,0.51,4.948,0.965C263.022,126.334,263.139,126.158,263.03,126.066
									L263.03,126.066z"/>
							</g>
						</g>
						<g>
							<g>
								<path style="fill:#3D3C41;" d="M243.957,127.309c0.329-0.18,0.638-0.369,0.953-0.574c0.311-0.202,0.625-0.396,0.948-0.578
									c0.604-0.341,1.262-0.568,1.963-0.507c0.268,0.023,0.498-0.246,0.498-0.498c0-0.287-0.229-0.477-0.498-0.498
									c-0.838-0.065-1.675,0.214-2.366,0.677c-0.338,0.227-0.648,0.501-0.926,0.797c-0.292,0.311-0.531,0.634-0.762,0.991
									C243.689,127.24,243.841,127.373,243.957,127.309L243.957,127.309z"/>
							</g>
						</g>
						<g>
							<g>
								<path style="fill:#3D3C41;" d="M250.174,129.21c-0.115,2.006-0.318,4.004-0.607,5.992c-0.061,0.419-0.163,0.858-0.106,1.283
									c0.044,0.327,0.241,0.587,0.447,0.835c0.386,0.466,1.128,1.307,1.802,0.957c0.164-0.085,0.203-0.305,0.12-0.458
									c-0.167-0.309-0.502-0.358-0.804-0.487c-0.317-0.135-0.611-0.315-0.832-0.585c-0.322-0.394-0.293-0.767-0.244-1.235
									c0.044-0.424,0.085-0.848,0.121-1.273c0.142-1.673,0.218-3.35,0.236-5.029C250.308,129.124,250.179,129.126,250.174,129.21
									L250.174,129.21z"/>
							</g>
						</g>
						<ellipse style="fill:#3D3C41;" cx="259.828" cy="129.682" rx="0.869" ry="1.875"/>
						<g>
							<g>
								<path style="fill:#3D3C41;" d="M251.431,142.745c0.669,0.61,1.591,0.839,2.481,0.766c0.503-0.041,0.995-0.136,1.475-0.293
									c0.44-0.143,1.054-0.329,1.31-0.747c0.083-0.136-0.026-0.299-0.175-0.306c-0.412-0.017-0.838,0.282-1.192,0.46
									c-0.413,0.208-0.853,0.388-1.309,0.477c-0.825,0.161-1.753,0.004-2.413-0.535
									C251.485,142.469,251.31,142.635,251.431,142.745L251.431,142.745z"/>
							</g>
						</g>
					</g>
					<g>
						<path style="fill:#F3EEEC;" d="M259.37,98.648c25.327,10.582,35.593,28.029,37.22,51.314
							c1.686,24.132,10.842,87.364,38.117,54.644c-24.728-52.768-33.369-99.996-74.24-107.458
							C258.949,96.87,259.37,98.648,259.37,98.648z"/>
						<g>
							<g>
								<path style="fill:#3D3C41;" d="M305.104,160.436c0.832,12.816,1.746,26.451,8.925,37.543
									c1.74,2.688,3.806,5.349,6.498,7.142c0.191,0.127,0.381-0.149,0.237-0.307c-1.971-2.154-3.997-4.238-5.669-6.644
									c-1.615-2.324-2.964-4.828-4.1-7.418c-2.614-5.961-3.91-12.395-4.711-18.827c-0.475-3.817-0.768-7.655-1.063-11.489
									C305.215,160.362,305.099,160.361,305.104,160.436L305.104,160.436z"/>
							</g>
						</g>
						<g>
							<g>
								<path style="fill:#3D3C41;" d="M310.571,167.455c2.242,10.058,6.479,19.799,12.42,28.228c0.874,1.24,1.79,2.449,2.665,3.688
									c0.858,1.214,1.568,2.614,2.593,3.695c0.165,0.174,0.447-0.007,0.392-0.228c-0.318-1.27-1.187-2.374-1.945-3.417
									c-0.785-1.08-1.609-2.129-2.417-3.192c-1.554-2.045-3.02-4.158-4.373-6.342c-2.741-4.425-5.009-9.153-6.73-14.066
									c-0.966-2.757-1.77-5.568-2.417-8.417C310.731,167.28,310.544,167.332,310.571,167.455L310.571,167.455z"/>
							</g>
						</g>
						<g>
							<g>
								<path style="fill:#3D3C41;" d="M320.554,184.332c2.134,3.041,4.201,6.119,5.925,9.415c0.876,1.676,1.692,3.375,2.395,5.131
									c0.328,0.819,0.629,1.649,0.915,2.484c0.143,0.419,0.275,0.842,0.418,1.26c0.165,0.479,0.318,0.727,0.63,1.111
									c0.16,0.196,0.425,0.013,0.447-0.185c0.054-0.505,0.023-0.803-0.133-1.301c-0.143-0.457-0.318-0.908-0.493-1.354
									c-0.31-0.791-0.652-1.572-1.01-2.342c-0.793-1.702-1.691-3.365-2.665-4.971c-1.943-3.206-4.086-6.297-6.273-9.34
									C320.642,184.148,320.487,184.237,320.554,184.332L320.554,184.332z"/>
							</g>
						</g>
					</g>
				</g>
			</g>
			<path style="fill:#FBD0C9;" d="M304.831,212.371c-2.979-0.211-8.841-1.438-10.318-0.126c-2.923,2.596,6.78,4.76,9.147,4.62
				c-3.185,0.281-11.327-0.573-13.324,2.364c-1.785,2.626,8.669,2.864,10.881,2.837c-2.396,1.181-13.658,0.621-13.437,3.582
				c0.142,1.898,10.268,2.045,12.469,1.738c-2.56,1.403-10.734,0.126-12.049,3.01c5.81,2.392,11.49,2.893,14.542-0.76
				c2.301-2.754,3.415-6.828,4.293-10.271C307.628,217.031,306.844,214.03,304.831,212.371z"/>
		</g>
	</g>
</g>
</svg>
